999
dxfrw 0.6.3
  0
SECTION
  2
HEADER
  9
$ACADVER
  1
AC1021
  9
$DWGCODEPAGE
  3
ANSI_1252
  9
$INSBASE
 10
0
 20
0
 30
0
  9
$EXTMIN
 10
-37.81250000000001
 20
-33.125
 30
0
  9
$EXTMAX
 10
483.125
 20
487.8125
 30
0
  9
$LIMMIN
 10
0
 20
0
  9
$LIMMAX
 10
420
 20
297
  9
$ORTHOMODE
 70
    0
  9
$REGENMODE
 70
    1
  9
$FILLMODE
 70
    1
  9
$QTEXTMODE
 70
    0
  9
$MIRRTEXT
 70
    0
  9
$LTSCALE
 40
1
  9
$ATTMODE
 70
    0
  9
$TEXTSIZE
 40
2.5
  9
$TRACEWID
 40
15.68
  9
$TEXTSTYLE
  7
STANDARD
  9
$CLAYER
  8
0
  9
$CELTYPE
  6
BYLAYER
  9
$CECOLOR
 62
  256
  9
$CELTSCALE
 40
1
  9
$DISPSILH
 70
    0
  9
$DIMSCALE
 40
2.5
  9
$DIMASZ
 40
2.5
  9
$DIMEXO
 40
0.625
  9
$DIMDLI
 40
3.75
  9
$DIMRND
 40
0
  9
$DIMDLE
 40
0
  9
$DIMEXE
 40
1.25
  9
$DIMTP
 40
0
  9
$DIMTM
 40
0
  9
$DIMTXT
 40
2.5
  9
$DIMCEN
 40
2.5
  9
$DIMTSZ
 40
0
  9
$DIMTOL
 70
    0
  9
$DIMLIM
 70
    0
  9
$DIMTIH
 70
    0
  9
$DIMTOH
 70
    0
  9
$DIMSE1
 70
    0
  9
$DIMSE2
 70
    0
  9
$DIMTAD
 70
    1
  9
$DIMZIN
 70
    8
  9
$DIMBLK
  1

  9
$DIMASO
 70
    1
  9
$DIMSHO
 70
    1
  9
$DIMPOST
  1

  9
$DIMAPOST
  1

  9
$DIMALT
 70
    0
  9
$DIMALTD
 70
    3
  9
$DIMALTF
 40
0.03937
  9
$DIMLFAC
 40
1
  9
$DIMTOFL
 70
    1
  9
$DIMTVP
 40
0
  9
$DIMTIX
 70
    0
  9
$DIMSOXD
 70
    0
  9
$DIMSAH
 70
    0
  9
$DIMBLK1
  1

  9
$DIMBLK2
  1

  9
$DIMSTYLE
  2
STANDARD
  9
$DIMCLRD
 70
    0
  9
$DIMCLRE
 70
    0
  9
$DIMCLRT
 70
    0
  9
$DIMTFAC
 40
1
  9
$DIMGAP
 40
0.625
  9
$DIMJUST
 70
    0
  9
$DIMSD1
 70
    0
  9
$DIMSD2
 70
    0
  9
$DIMTOLJ
 70
    0
  9
$DIMTZIN
 70
    8
  9
$DIMALTZ
 70
    0
  9
$DIMALTTZ
 70
    0
  9
$DIMUPT
 70
    0
  9
$DIMDEC
 70
    2
  9
$DIMTDEC
 70
    2
  9
$DIMALTU
 70
    2
  9
$DIMALTTD
 70
    3
  9
$DIMTXSTY
  7
STANDARD
  9
$DIMAUNIT
 70
    0
  9
$DIMADEC
 70
    0
  9
$DIMALTRND
 40
0
  9
$DIMAZIN
 70
    0
  9
$DIMDSEP
 70
   44
  9
$DIMATFIT
 70
    3
  9
$DIMFRAC
 70
    0
  9
$DIMLDRBLK
  1
STANDARD
  9
$DIMLUNIT
 70
    2
  9
$DIMLWD
 70
   -2
  9
$DIMLWE
 70
   -2
  9
$DIMTMOVE
 70
    0
  9
$DIMFXL
 40
1
  9
$DIMFXLON
 70
    0
  9
$DIMJOGANG
 40
0.7854
  9
$DIMTFILL
 70
    0
  9
$DIMTFILLCLR
 70
    0
  9
$DIMARCSYM
 70
    0
  9
$DIMLTYPE
  6

  9
$DIMLTEX1
  6

  9
$DIMLTEX2
  6

  9
$LUNITS
 70
    2
  9
$LUPREC
 70
    4
  9
$SKETCHINC
 40
1
  9
$FILLETRAD
 40
0
  9
$AUNITS
 70
    0
  9
$AUPREC
 70
    2
  9
$MENU
  1
.
  9
$ELEVATION
 40
0
  9
$PELEVATION
 40
0
  9
$THICKNESS
 40
0
  9
$LIMCHECK
 70
    0
  9
$CHAMFERA
 40
0
  9
$CHAMFERB
 40
0
  9
$CHAMFERC
 40
0
  9
$CHAMFERD
 40
0
  9
$SKPOLY
 70
    0
  9
$USRTIMER
 70
    1
  9
$ANGBASE
 50
0
  9
$ANGDIR
 70
    0
  9
$PDMODE
 70
   34
  9
$PDSIZE
 40
0
  9
$PLINEWID
 40
0
  9
$SPLFRAME
 70
    0
  9
$SPLINETYPE
 70
    2
  9
$SPLINESEGS
 70
    8
  9
$HANDSEED
  5
20000
  9
$SURFTAB1
 70
    6
  9
$SURFTAB2
 70
    6
  9
$SURFTYPE
 70
    6
  9
$SURFU
 70
    6
  9
$SURFV
 70
    6
  9
$UCSBASE
  2

  9
$UCSNAME
  2

  9
$UCSORG
 10
0
 20
0
 30
0
  9
$UCSXDIR
 10
1
 20
0
 30
0
  9
$UCSYDIR
 10
0
 20
1
 30
0
  9
$UCSORTHOREF
  2

  9
$UCSORTHOVIEW
 70
    0
  9
$UCSORGTOP
 10
0
 20
0
 30
0
  9
$UCSORGBOTTOM
 10
0
 20
0
 30
0
  9
$UCSORGLEFT
 10
0
 20
0
 30
0
  9
$UCSORGRIGHT
 10
0
 20
0
 30
0
  9
$UCSORGFRONT
 10
0
 20
0
 30
0
  9
$UCSORGBACK
 10
0
 20
0
 30
0
  9
$PUCSBASE
  2

  9
$PUCSNAME
  2

  9
$PUCSORG
 10
0
 20
0
 30
0
  9
$PUCSXDIR
 10
1
 20
0
 30
0
  9
$PUCSYDIR
 10
0
 20
1
 30
0
  9
$PUCSORTHOREF
  2

  9
$PUCSORTHOVIEW
 70
    0
  9
$PUCSORGTOP
 10
0
 20
0
 30
0
  9
$PUCSORGBOTTOM
 10
0
 20
0
 30
0
  9
$PUCSORGLEFT
 10
0
 20
0
 30
0
  9
$PUCSORGRIGHT
 10
0
 20
0
 30
0
  9
$PUCSORGFRONT
 10
0
 20
0
 30
0
  9
$PUCSORGBACK
 10
0
 20
0
 30
0
  9
$USERI1
 70
    0
  9
$USERI2
 70
    0
  9
$USERI3
 70
    0
  9
$USERI4
 70
    0
  9
$USERI5
 70
    0
  9
$USERR1
 40
0
  9
$USERR2
 40
0
  9
$USERR3
 40
0
  9
$USERR4
 40
0
  9
$USERR5
 40
0
  9
$WORLDVIEW
 70
    1
  9
$SHADEDGE
 70
    3
  9
$SHADEDIF
 70
   70
  9
$TILEMODE
 70
    1
  9
$MAXACTVP
 70
   64
  9
$PINSBASE
 10
12.5
 20
56
 30
0
  9
$PLIMCHECK
 70
    0
  9
$PEXTMIN
 10
0
 20
0
 30
0
  9
$PEXTMAX
 10
0
 20
0
 30
0
  9
$GRIDMODE
 70
    1
  9
$SNAPSTYLE
 70
    0
  9
$PLIMMIN
 10
0
 20
0
  9
$PLIMMAX
 10
210
 20
297
  9
$UNITMODE
 70
    0
  9
$VISRETAIN
 70
    1
  9
$PLINEGEN
 70
    0
  9
$PSLTSCALE
 70
    1
  9
$TREEDEPTH
 70
 3020
  9
$CMLSTYLE
  2
Standard
  9
$CMLJUST
 70
    0
  9
$CMLSCALE
 40
20
  9
$PROXYGRAPHICS
 70
    1
  9
$MEASUREMENT
 70
    1
  9
$CELWEIGHT
370
   -1
  9
$ENDCAPS
280
    0
  9
$JOINSTYLE
280
    0
  9
$LWDISPLAY
290
    0
  9
$INSUNITS
 70
    4
  9
$HYPERLINKBASE
  1

  9
$STYLESHEET
  1

  9
$XEDIT
290
    1
  9
$CEPSNTYPE
380
    0
  9
$PSTYLEMODE
290
    1
  9
$EXTNAMES
290
    1
  9
$PSVPSCALE
 40
0.4111115222226333
  9
$OLESTARTUP
290
    0
  9
$SORTENTS
280
  127
  9
$INDEXCTL
280
    0
  9
$HIDETEXT
280
    1
  9
$XCLIPFRAME
290
    0
  9
$HALOGAP
280
    0
  9
$OBSCOLOR
 70
  257
  9
$OBSLTYPE
280
    0
  9
$INTERSECTIONDISPLAY
280
    0
  9
$INTERSECTIONCOLOR
 70
  257
  9
$DIMASSOC
280
    1
  9
$PROJECTNAME
  1

  9
$CAMERADISPLAY
290
    0
  9
$LENSLENGTH
 40
50
  9
$CAMERAHEIGHT
 40
0
  9
$STEPSPERSEC
 40
2
  9
$STEPSIZE
 40
50
  9
$3DDWFPREC
 40
2
  9
$PSOLWIDTH
 40
5
  9
$PSOLHEIGHT
 40
80
  9
$LOFTANG1
 40
1.570796326794897
  9
$LOFTANG2
 40
1.570796326794897
  9
$LOFTMAG1
 40
0
  9
$LOFTMAG2
 40
0
  9
$LOFTPARAM
 70
    7
  9
$LOFTNORMALS
280
    1
  9
$LATITUDE
 40
1
  9
$LONGITUDE
 40
1
  9
$NORTHDIRECTION
 40
0
  9
$TIMEZONE
 70
-8000
  9
$LIGHTGLYPHDISPLAY
280
    1
  9
$TILEMODELIGHTSYNCH
280
    1
  9
$SOLIDHIST
280
    1
  9
$SHOWHIST
280
    1
  9
$DWFFRAME
280
    2
  9
$DGNFRAME
280
    0
  9
$REALWORLDSCALE
290
    1
  9
$INTERFERECOLOR
 62
    1
  9
$CSHADOW
280
    0
  9
$SHADOWPLANELOCATION
 40
0
  0
ENDSEC
  0
SECTION
  2
CLASSES
  0
ENDSEC
  0
SECTION
  2
TABLES
  0
TABLE
  2
VPORT
  5
8
330
0
100
AcDbSymbolTable
 70
    1
  0
VPORT
  5
31
330
2
100
AcDbSymbolTableRecord
100
AcDbViewportTableRecord
  2
*ACTIVE
 70
    0
 10
0
 20
0
 11
1
 21
1
 12
362.5794227574751
 22
245.46944213732
 13
0
 23
0
 14
10
 24
10
 15
10
 25
10
 16
0
 26
0
 36
1
 17
0
 27
0
 37
0
 40
526.7064645625692
 41
1.907995618838992
 42
50
 43
0
 44
0
 50
0
 51
0
 71
    0
 72
  100
 73
    1
 74
    3
 75
    0
 76
    1
 77
    0
 78
    0
281
    0
 65
    1
110
0
120
0
130
0
111
1
121
0
131
0
112
0
122
1
132
0
 79
    0
146
0
348
10020
 60
    7
 61
    5
292
1
282
    1
141
0
142
0
 63
  250
421
3358443
  0
ENDTAB
  0
TABLE
  2
LTYPE
  5
5
330
0
100
AcDbSymbolTable
 70
    4
  0
LTYPE
  5
14
330
5
100
AcDbSymbolTableRecord
100
AcDbLinetypeTableRecord
  2
ByBlock
 70
    0
  3

 72
   65
 73
    0
 40
0
  0
LTYPE
  5
15
330
5
100
AcDbSymbolTableRecord
100
AcDbLinetypeTableRecord
  2
ByLayer
 70
    0
  3

 72
   65
 73
    0
 40
0
  0
LTYPE
  5
16
330
5
100
AcDbSymbolTableRecord
100
AcDbLinetypeTableRecord
  2
Continuous
 70
    0
  3
Solid line
 72
   65
 73
    0
 40
0
  0
LTYPE
  5
32
330
5
100
AcDbSymbolTableRecord
100
AcDbLinetypeTableRecord
  2
DOT
 70
    0
  3
Dot . . . . . . . . . . . . . . . . . . . . . .
 72
   65
 73
    2
 40
6.35
 49
0
 74
    0
 49
-6.35
 74
    0
  0
LTYPE
  5
33
330
5
100
AcDbSymbolTableRecord
100
AcDbLinetypeTableRecord
  2
DOTTINY
 70
    0
  3
Dot (.15x) .....................................
 72
   65
 73
    2
 40
0.9525
 49
0
 74
    0
 49
-0.9525
 74
    0
  0
LTYPE
  5
34
330
5
100
AcDbSymbolTableRecord
100
AcDbLinetypeTableRecord
  2
DOT2
 70
    0
  3
Dot (.5x) .....................................
 72
   65
 73
    2
 40
3.175
 49
0
 74
    0
 49
-3.175
 74
    0
  0
LTYPE
  5
35
330
5
100
AcDbSymbolTableRecord
100
AcDbLinetypeTableRecord
  2
DOTX2
 70
    0
  3
Dot (2x) .  .  .  .  .  .  .  .  .  .  .  .  .
 72
   65
 73
    2
 40
12.7
 49
0
 74
    0
 49
-12.7
 74
    0
  0
LTYPE
  5
36
330
5
100
AcDbSymbolTableRecord
100
AcDbLinetypeTableRecord
  2
DASHED
 70
    0
  3
Dashed _ _ _ _ _ _ _ _ _ _ _ _ _ _ _ _ _
 72
   65
 73
    2
 40
19.05
 49
12.7
 74
    0
 49
-6.35
 74
    0
  0
LTYPE
  5
37
330
5
100
AcDbSymbolTableRecord
100
AcDbLinetypeTableRecord
  2
DASHEDTINY
 70
    0
  3
Dashed (.15x) _ _ _ _ _ _ _ _ _ _ _ _ _ _ _ _ _
 72
   65
 73
    2
 40
2.8575
 49
1.905
 74
    0
 49
-0.9525
 74
    0
  0
LTYPE
  5
38
330
5
100
AcDbSymbolTableRecord
100
AcDbLinetypeTableRecord
  2
DASHED2
 70
    0
  3
Dashed (.5x) _ _ _ _ _ _ _ _ _ _ _ _ _ _ _ _ _
 72
   65
 73
    2
 40
9.524999999999999
 49
6.35
 74
    0
 49
-3.175
 74
    0
  0
LTYPE
  5
39
330
5
100
AcDbSymbolTableRecord
100
AcDbLinetypeTableRecord
  2
DASHEDX2
 70
    0
  3
Dashed (2x) ____  ____  ____  ____  ____  ___
 72
   65
 73
    2
 40
38.09999999999999
 49
25.4
 74
    0
 49
-12.7
 74
    0
  0
LTYPE
  5
3A
330
5
100
AcDbSymbolTableRecord
100
AcDbLinetypeTableRecord
  2
DASHDOT
 70
    0
  3
Dash dot __ . __ . __ . __ . __ . __ . __ . __
 72
   65
 73
    4
 40
25.4
 49
12.7
 74
    0
 49
-6.35
 74
    0
 49
0
 74
    0
 49
-6.35
 74
    0
  0
LTYPE
  5
3B
330
5
100
AcDbSymbolTableRecord
100
AcDbLinetypeTableRecord
  2
DASHDOTTINY
 70
    0
  3
Dash dot (.15x) _._._._._._._._._._._._._._._.
 72
   65
 73
    4
 40
3.81
 49
1.905
 74
    0
 49
-0.9525
 74
    0
 49
0
 74
    0
 49
-0.9525
 74
    0
  0
LTYPE
  5
3C
330
5
100
AcDbSymbolTableRecord
100
AcDbLinetypeTableRecord
  2
DASHDOT2
 70
    0
  3
Dash dot (.5x) _._._._._._._._._._._._._._._.
 72
   65
 73
    4
 40
12.7
 49
6.35
 74
    0
 49
-3.175
 74
    0
 49
0
 74
    0
 49
-3.175
 74
    0
  0
LTYPE
  5
3D
330
5
100
AcDbSymbolTableRecord
100
AcDbLinetypeTableRecord
  2
DASHDOTX2
 70
    0
  3
Dash dot (2x) ____  .  ____  .  ____  .  ___
 72
   65
 73
    4
 40
50.8
 49
25.4
 74
    0
 49
-12.7
 74
    0
 49
0
 74
    0
 49
-12.7
 74
    0
  0
LTYPE
  5
3E
330
5
100
AcDbSymbolTableRecord
100
AcDbLinetypeTableRecord
  2
DIVIDE
 70
    0
  3
Divide ____ . . ____ . . ____ . . ____ . . ____
 72
   65
 73
    6
 40
31.75
 49
12.7
 74
    0
 49
-6.35
 74
    0
 49
0
 74
    0
 49
-6.35
 74
    0
 49
0
 74
    0
 49
-6.35
 74
    0
  0
LTYPE
  5
3F
330
5
100
AcDbSymbolTableRecord
100
AcDbLinetypeTableRecord
  2
DIVIDETINY
 70
    0
  3
Divide (.15x) __..__..__..__..__..__..__..__.._
 72
   65
 73
    6
 40
4.7625
 49
1.905
 74
    0
 49
-0.9525
 74
    0
 49
0
 74
    0
 49
-0.9525
 74
    0
 49
0
 74
    0
 49
-0.9525
 74
    0
  0
LTYPE
  5
40
330
5
100
AcDbSymbolTableRecord
100
AcDbLinetypeTableRecord
  2
DIVIDE2
 70
    0
  3
Divide (.5x) __..__..__..__..__..__..__..__.._
 72
   65
 73
    6
 40
15.875
 49
6.35
 74
    0
 49
-3.175
 74
    0
 49
0
 74
    0
 49
-3.175
 74
    0
 49
0
 74
    0
 49
-3.175
 74
    0
  0
LTYPE
  5
41
330
5
100
AcDbSymbolTableRecord
100
AcDbLinetypeTableRecord
  2
DIVIDEX2
 70
    0
  3
Divide (2x) ________  .  .  ________  .  .  _
 72
   65
 73
    6
 40
63.5
 49
25.4
 74
    0
 49
-12.7
 74
    0
 49
0
 74
    0
 49
-12.7
 74
    0
 49
0
 74
    0
 49
-12.7
 74
    0
  0
LTYPE
  5
42
330
5
100
AcDbSymbolTableRecord
100
AcDbLinetypeTableRecord
  2
BORDER
 70
    0
  3
Border __ __ . __ __ . __ __ . __ __ . __ __ .
 72
   65
 73
    6
 40
44.45
 49
12.7
 74
    0
 49
-6.35
 74
    0
 49
12.7
 74
    0
 49
-6.35
 74
    0
 49
0
 74
    0
 49
-6.35
 74
    0
  0
LTYPE
  5
43
330
5
100
AcDbSymbolTableRecord
100
AcDbLinetypeTableRecord
  2
BORDERTINY
 70
    0
  3
Border (.15x) __.__.__.__.__.__.__.__.__.__.__.
 72
   65
 73
    6
 40
6.6675
 49
1.905
 74
    0
 49
-0.9525
 74
    0
 49
1.905
 74
    0
 49
-0.9525
 74
    0
 49
0
 74
    0
 49
-0.9525
 74
    0
  0
LTYPE
  5
44
330
5
100
AcDbSymbolTableRecord
100
AcDbLinetypeTableRecord
  2
BORDER2
 70
    0
  3
Border (.5x) __.__.__.__.__.__.__.__.__.__.__.
 72
   65
 73
    6
 40
22.225
 49
6.35
 74
    0
 49
-3.175
 74
    0
 49
6.35
 74
    0
 49
-3.175
 74
    0
 49
0
 74
    0
 49
-3.175
 74
    0
  0
LTYPE
  5
45
330
5
100
AcDbSymbolTableRecord
100
AcDbLinetypeTableRecord
  2
BORDERX2
 70
    0
  3
Border (2x) ____  ____  .  ____  ____  .  ___
 72
   65
 73
    6
 40
88.89999999999999
 49
25.4
 74
    0
 49
-12.7
 74
    0
 49
25.4
 74
    0
 49
-12.7
 74
    0
 49
0
 74
    0
 49
-12.7
 74
    0
  0
LTYPE
  5
46
330
5
100
AcDbSymbolTableRecord
100
AcDbLinetypeTableRecord
  2
CENTER
 70
    0
  3
Center ____ _ ____ _ ____ _ ____ _ ____ _ ____
 72
   65
 73
    4
 40
50.8
 49
31.75
 74
    0
 49
-6.35
 74
    0
 49
6.35
 74
    0
 49
-6.35
 74
    0
  0
LTYPE
  5
47
330
5
100
AcDbSymbolTableRecord
100
AcDbLinetypeTableRecord
  2
CENTERTINY
 70
    0
  3
Center (.15x) ___ _ ___ _ ___ _ ___ _ ___ _ ___
 72
   65
 73
    4
 40
7.62
 49
4.7625
 74
    0
 49
-0.9525
 74
    0
 49
0.9525
 74
    0
 49
-0.9525
 74
    0
  0
LTYPE
  5
48
330
5
100
AcDbSymbolTableRecord
100
AcDbLinetypeTableRecord
  2
CENTER2
 70
    0
  3
Center (.5x) ___ _ ___ _ ___ _ ___ _ ___ _ ___
 72
   65
 73
    4
 40
28.575
 49
19.05
 74
    0
 49
-3.175
 74
    0
 49
3.175
 74
    0
 49
-3.175
 74
    0
  0
LTYPE
  5
49
330
5
100
AcDbSymbolTableRecord
100
AcDbLinetypeTableRecord
  2
CENTERX2
 70
    0
  3
Center (2x) ________  __  ________  __  _____
 72
   65
 73
    4
 40
101.6
 49
63.5
 74
    0
 49
-12.7
 74
    0
 49
12.7
 74
    0
 49
-12.7
 74
    0
  0
ENDTAB
  0
TABLE
  2
LAYER
  5
2
330
0
100
AcDbSymbolTable
 70
    1
  0
LAYER
  5
10
330
2
100
AcDbSymbolTableRecord
100
AcDbLayerTableRecord
  2
0
 70
    0
 62
    7
  6
CONTINUOUS
370
    0
390
F
  0
LAYER
  5
4A
330
2
100
AcDbSymbolTableRecord
100
AcDbLayerTableRecord
  2
Dimensions
 70
    0
 62
  136
420
32896
  6
CONTINUOUS
370
    0
390
F
  0
LAYER
  5
4B
330
2
100
AcDbSymbolTableRecord
100
AcDbLayerTableRecord
  2
LEDs
 70
    0
 62
    2
  6
CONTINUOUS
370
    0
390
F
  0
ENDTAB
  0
TABLE
  2
STYLE
  5
3
330
0
100
AcDbSymbolTable
 70
    3
  0
STYLE
  5
4C
330
2
100
AcDbSymbolTableRecord
100
AcDbTextStyleTableRecord
  2
Standard
 70
    0
 40
0
 41
1
 50
0
 71
    0
 42
1
  3
txt
  4

  0
ENDTAB
  0
TABLE
  2
VIEW
  5
6
330
0
100
AcDbSymbolTable
 70
    0
  0
ENDTAB
  0
TABLE
  2
UCS
  5
7
330
0
100
AcDbSymbolTable
 70
    0
  0
ENDTAB
  0
TABLE
  2
APPID
  5
9
330
0
100
AcDbSymbolTable
 70
    1
  0
APPID
  5
12
330
9
100
AcDbSymbolTableRecord
100
AcDbRegAppTableRecord
  2
ACAD
 70
    0
  0
APPID
  5
4D
330
9
100
AcDbSymbolTableRecord
100
AcDbRegAppTableRecord
  2
LibreCad
 70
    0
  0
ENDTAB
  0
TABLE
  2
DIMSTYLE
  5
A
330
0
100
AcDbSymbolTable
 70
    1
100
AcDbDimStyleTable
 71
    1
  0
DIMSTYLE
105
4E
330
A
100
AcDbSymbolTableRecord
100
AcDbDimStyleTableRecord
  2
Standard
 70
    0
 40
2.5
 41
2.5
 42
0.625
 43
0.38
 44
1.25
 45
0
 46
0
 47
0
 48
0
 49
1
140
2.5
141
0.09
142
0
143
25.4
144
1
145
0
146
1
147
0.625
148
0
 71
    0
 72
    0
 73
    0
 74
    1
 75
    0
 76
    0
 77
    0
 78
    8
 79
    0
170
    0
171
    2
172
    0
173
    0
174
    0
175
    0
176
    0
177
    0
178
    0
179
    0
271
    2
272
    4
273
    2
274
    2
275
    0
276
    0
277
    2
278
   44
279
    0
280
    0
281
    0
282
    0
283
    1
284
    0
285
    0
286
    0
288
    0
289
    3
340
STANDARD
341

371
   -2
372
   -2
  0
ENDTAB
  0
TABLE
  2
BLOCK_RECORD
  5
1
330
0
100
AcDbSymbolTable
 70
    2
  0
BLOCK_RECORD
  5
1F
330
1
100
AcDbSymbolTableRecord
100
AcDbBlockTableRecord
  2
*Model_Space
 70
    0
280
    1
281
    0
  0
BLOCK_RECORD
  5
1E
330
1
100
AcDbSymbolTableRecord
100
AcDbBlockTableRecord
  2
*Paper_Space
 70
    0
280
    1
281
    0
  0
BLOCK_RECORD
  5
4F
330
1
100
AcDbSymbolTableRecord
100
AcDbBlockTableRecord
  2
*D13
 70
    0
280
    1
281
    0
  0
BLOCK_RECORD
  5
52
330
1
100
AcDbSymbolTableRecord
100
AcDbBlockTableRecord
  2
*D19
 70
    0
280
    1
281
    0
  0
BLOCK_RECORD
  5
55
330
1
100
AcDbSymbolTableRecord
100
AcDbBlockTableRecord
  2
*D17
 70
    0
280
    1
281
    0
  0
BLOCK_RECORD
  5
58
330
1
100
AcDbSymbolTableRecord
100
AcDbBlockTableRecord
  2
*D5
 70
    0
280
    1
281
    0
  0
BLOCK_RECORD
  5
5B
330
1
100
AcDbSymbolTableRecord
100
AcDbBlockTableRecord
  2
*D27
 70
    0
280
    1
281
    0
  0
BLOCK_RECORD
  5
5E
330
1
100
AcDbSymbolTableRecord
100
AcDbBlockTableRecord
  2
*D4
 70
    0
280
    1
281
    0
  0
BLOCK_RECORD
  5
61
330
1
100
AcDbSymbolTableRecord
100
AcDbBlockTableRecord
  2
*D12
 70
    0
280
    1
281
    0
  0
BLOCK_RECORD
  5
64
330
1
100
AcDbSymbolTableRecord
100
AcDbBlockTableRecord
  2
*D25
 70
    0
280
    1
281
    0
  0
BLOCK_RECORD
  5
67
330
1
100
AcDbSymbolTableRecord
100
AcDbBlockTableRecord
  2
*D6
 70
    0
280
    1
281
    0
  0
BLOCK_RECORD
  5
6A
330
1
100
AcDbSymbolTableRecord
100
AcDbBlockTableRecord
  2
*D20
 70
    0
280
    1
281
    0
  0
BLOCK_RECORD
  5
6D
330
1
100
AcDbSymbolTableRecord
100
AcDbBlockTableRecord
  2
*D7
 70
    0
280
    1
281
    0
  0
BLOCK_RECORD
  5
70
330
1
100
AcDbSymbolTableRecord
100
AcDbBlockTableRecord
  2
*D1
 70
    0
280
    1
281
    0
  0
BLOCK_RECORD
  5
73
330
1
100
AcDbSymbolTableRecord
100
AcDbBlockTableRecord
  2
*D8
 70
    0
280
    1
281
    0
  0
BLOCK_RECORD
  5
76
330
1
100
AcDbSymbolTableRecord
100
AcDbBlockTableRecord
  2
*D10
 70
    0
280
    1
281
    0
  0
BLOCK_RECORD
  5
79
330
1
100
AcDbSymbolTableRecord
100
AcDbBlockTableRecord
  2
*D15
 70
    0
280
    1
281
    0
  0
BLOCK_RECORD
  5
7C
330
1
100
AcDbSymbolTableRecord
100
AcDbBlockTableRecord
  2
*D14
 70
    0
280
    1
281
    0
  0
BLOCK_RECORD
  5
7F
330
1
100
AcDbSymbolTableRecord
100
AcDbBlockTableRecord
  2
*D23
 70
    0
280
    1
281
    0
  0
BLOCK_RECORD
  5
82
330
1
100
AcDbSymbolTableRecord
100
AcDbBlockTableRecord
  2
*D2
 70
    0
280
    1
281
    0
  0
BLOCK_RECORD
  5
85
330
1
100
AcDbSymbolTableRecord
100
AcDbBlockTableRecord
  2
*D9
 70
    0
280
    1
281
    0
  0
BLOCK_RECORD
  5
88
330
1
100
AcDbSymbolTableRecord
100
AcDbBlockTableRecord
  2
*D3
 70
    0
280
    1
281
    0
  0
BLOCK_RECORD
  5
8B
330
1
100
AcDbSymbolTableRecord
100
AcDbBlockTableRecord
  2
*D24
 70
    0
280
    1
281
    0
  0
BLOCK_RECORD
  5
8E
330
1
100
AcDbSymbolTableRecord
100
AcDbBlockTableRecord
  2
*D11
 70
    0
280
    1
281
    0
  0
BLOCK_RECORD
  5
91
330
1
100
AcDbSymbolTableRecord
100
AcDbBlockTableRecord
  2
*D16
 70
    0
280
    1
281
    0
  0
BLOCK_RECORD
  5
94
330
1
100
AcDbSymbolTableRecord
100
AcDbBlockTableRecord
  2
*D22
 70
    0
280
    1
281
    0
  0
BLOCK_RECORD
  5
97
330
1
100
AcDbSymbolTableRecord
100
AcDbBlockTableRecord
  2
*D18
 70
    0
280
    1
281
    0
  0
BLOCK_RECORD
  5
9A
330
1
100
AcDbSymbolTableRecord
100
AcDbBlockTableRecord
  2
*D21
 70
    0
280
    1
281
    0
  0
BLOCK_RECORD
  5
9D
330
1
100
AcDbSymbolTableRecord
100
AcDbBlockTableRecord
  2
*D26
 70
    0
280
    1
281
    0
  0
ENDTAB
  0
ENDSEC
  0
SECTION
  2
BLOCKS
  0
BLOCK
  5
20
330
1F
100
AcDbEntity
  8
0
100
AcDbBlockBegin
  2
*Model_Space
 70
    0
 10
0
 20
0
 30
0
  3
*Model_Space
  1

  0
ENDBLK
  5
21
330
1F
100
AcDbEntity
  8
0
100
AcDbBlockEnd
  0
BLOCK
  5
1C
330
1B
100
AcDbEntity
  8
0
100
AcDbBlockBegin
  2
*Paper_Space
 70
    0
 10
0
 20
0
 30
0
  3
*Paper_Space
  1

  0
ENDBLK
  5
1D
330
1F
100
AcDbEntity
  8
0
100
AcDbBlockEnd
  0
BLOCK
  5
50
330
4F
100
AcDbEntity
  8
0
100
AcDbBlockBegin
  2
*D13
 70
    1
 10
0
 20
0
  3
*D13
  1

  0
LINE
  5
A0
100
AcDbEntity
  8
Dimensions
  6
ByBlock
 62
    0
370
   -2
100
AcDbLine
 10
67.5
 20
30
 11
35
 21
30
  0
SOLID
  5
A1
100
AcDbEntity
  8
Dimensions
  6
ByBlock
 62
    0
370
   -2
100
AcDbTrace
 10
55
 20
30
 30
0
 11
61.25
 21
31.0407116444321
 31
0
 12
61.25
 22
28.9592883555679
 32
0
 13
61.25
 23
28.9592883555679
 33
0
  0
SOLID
  5
A2
100
AcDbEntity
  8
Dimensions
  6
ByBlock
 62
    0
370
   -2
100
AcDbTrace
 10
47.5
 20
30
 30
0
 11
41.25
 21
28.9592883555679
 31
0
 12
41.25
 22
31.0407116444321
 32
0
 13
41.25
 23
31.0407116444321
 33
0
  0
MTEXT
  5
A3
100
AcDbEntity
  8
Dimensions
  6
CONTINUOUS
 62
    0
370
   -2
100
AcDbMText
 10
61.59722222222241
 20
34.6875
 30
0
 40
6.25
 41
10.06944444444483
 71
    5
 72
    1
  1
7,5
  7
STANDARD
210
0
220
0
230
1
 50
360
 73
    2
 44
1
  0
LINE
  5
A4
100
AcDbEntity
  8
Dimensions
  6
ByBlock
 62
    0
370
   -2
100
AcDbLine
 10
55
 20
53.4375
 11
55
 21
26.875
  0
LINE
  5
A5
100
AcDbEntity
  8
Dimensions
  6
ByBlock
 62
    0
370
   -2
100
AcDbLine
 10
47.5
 20
53.4375
 11
47.5
 21
26.875
  0
ENDBLK
  5
51
330
4F
100
AcDbEntity
  8
0
100
AcDbBlockEnd
  0
BLOCK
  5
53
330
52
100
AcDbEntity
  8
0
100
AcDbBlockBegin
  2
*D19
 70
    1
 10
0
 20
0
  3
*D19
  1

  0
LINE
  5
A6
100
AcDbEntity
  8
Dimensions
  6
ByBlock
 62
    0
370
   -2
100
AcDbLine
 10
40
 20
387.5
 11
40
 21
349
  0
SOLID
  5
A7
100
AcDbEntity
  8
Dimensions
  6
ByBlock
 62
    0
370
   -2
100
AcDbTrace
 10
40
 20
387.5
 30
0
 11
41.0407116444321
 21
381.25
 31
0
 12
38.9592883555679
 22
381.25
 32
0
 13
38.9592883555679
 23
381.25
 33
0
  0
SOLID
  5
A8
100
AcDbEntity
  8
Dimensions
  6
ByBlock
 62
    0
370
   -2
100
AcDbTrace
 10
40
 20
349
 30
0
 11
38.9592883555679
 21
355.25
 31
0
 12
41.0407116444321
 22
355.25
 32
0
 13
41.0407116444321
 23
355.25
 33
0
  0
MTEXT
  5
A9
100
AcDbEntity
  8
Dimensions
  6
CONTINUOUS
 62
    0
370
   -2
100
AcDbMText
 10
35.3125
 20
368.25
 30
0
 40
6.25
 41
14.93055555555633
 71
    5
 72
    1
  1
38,5
  7
STANDARD
210
0
220
0
230
1
 50
90
 73
    2
 44
1
  0
LINE
  5
AA
100
AcDbEntity
  8
Dimensions
  6
ByBlock
 62
    0
370
   -2
100
AcDbLine
 10
60.9375
 20
387.5
 11
36.875
 21
387.5
  0
LINE
  5
AB
100
AcDbEntity
  8
Dimensions
  6
ByBlock
 62
    0
370
   -2
100
AcDbLine
 10
60.9375
 20
349
 11
36.875
 21
349
  0
ENDBLK
  5
54
330
52
100
AcDbEntity
  8
0
100
AcDbBlockEnd
  0
BLOCK
  5
56
330
55
100
AcDbEntity
  8
0
100
AcDbBlockBegin
  2
*D17
 70
    1
 10
0
 20
0
  3
*D17
  1

  0
LINE
  5
AC
100
AcDbEntity
  8
Dimensions
  6
ByBlock
 62
    0
370
   -2
100
AcDbLine
 10
420
 20
116.5
 11
420
 21
85.5
  0
SOLID
  5
AD
100
AcDbEntity
  8
Dimensions
  6
ByBlock
 62
    0
370
   -2
100
AcDbTrace
 10
420
 20
116.5
 30
0
 11
421.0407116444321
 21
110.25
 31
0
 12
418.9592883555679
 22
110.25
 32
0
 13
418.9592883555679
 23
110.25
 33
0
  0
SOLID
  5
AE
100
AcDbEntity
  8
Dimensions
  6
ByBlock
 62
    0
370
   -2
100
AcDbTrace
 10
420
 20
85.5
 30
0
 11
418.9592883555679
 21
91.75
 31
0
 12
421.0407116444321
 22
91.75
 32
0
 13
421.0407116444321
 23
91.75
 33
0
  0
MTEXT
  5
AF
100
AcDbEntity
  8
Dimensions
  6
CONTINUOUS
 62
    0
370
   -2
100
AcDbMText
 10
415.3125
 20
101
 30
0
 40
6.25
 41
6.250000000000387
 71
    5
 72
    1
  1
31
  7
STANDARD
210
0
220
0
230
1
 50
90
 73
    2
 44
1
  0
LINE
  5
B0
100
AcDbEntity
  8
Dimensions
  6
ByBlock
 62
    0
370
   -2
100
AcDbLine
 10
367.4715909089
 20
116.5
 11
423.125
 21
116.5
  0
LINE
  5
B1
100
AcDbEntity
  8
Dimensions
  6
ByBlock
 62
    0
370
   -2
100
AcDbLine
 10
367.4715909089
 20
85.5
 11
423.125
 21
85.5
  0
ENDBLK
  5
57
330
55
100
AcDbEntity
  8
0
100
AcDbBlockEnd
  0
BLOCK
  5
59
330
58
100
AcDbEntity
  8
0
100
AcDbBlockBegin
  2
*D5
 70
    1
 10
0
 20
0
  3
*D5
  1

  0
LINE
  5
B2
100
AcDbEntity
  8
Dimensions
  6
ByBlock
 62
    0
370
   -2
100
AcDbLine
 10
55.00000000000001
 20
-20
 11
0
 21
-20
  0
SOLID
  5
B3
100
AcDbEntity
  8
Dimensions
  6
ByBlock
 62
    0
370
   -2
100
AcDbTrace
 10
55.00000000000001
 20
-20
 30
0
 11
48.75000000000001
 21
-21.0407116444321
 31
0
 12
48.75000000000001
 22
-18.9592883555679
 32
0
 13
48.75000000000001
 23
-18.9592883555679
 33
0
  0
SOLID
  5
B4
100
AcDbEntity
  8
Dimensions
  6
ByBlock
 62
    0
370
   -2
100
AcDbTrace
 10
0
 20
-20
 30
0
 11
6.25
 21
-18.9592883555679
 31
0
 12
6.25
 22
-21.0407116444321
 32
0
 13
6.25
 23
-21.0407116444321
 33
0
  0
MTEXT
  5
B5
100
AcDbEntity
  8
Dimensions
  6
CONTINUOUS
 62
    0
370
   -2
100
AcDbMText
 10
27.5
 20
-15.3125
 30
0
 40
6.25
 41
7.638888888889664
 71
    5
 72
    1
  1
55
  7
STANDARD
210
0
220
0
230
1
 50
360
 73
    2
 44
1
  0
LINE
  5
B6
100
AcDbEntity
  8
Dimensions
  6
ByBlock
 62
    0
370
   -2
100
AcDbLine
 10
55
 20
53.4375
 11
55.00000000000001
 21
-23.125
  0
LINE
  5
B7
100
AcDbEntity
  8
Dimensions
  6
ByBlock
 62
    0
370
   -2
100
AcDbLine
 10
-2.870171141771197e-016
 20
53.4375
 11
-5.740342283542393e-016
 21
-23.125
  0
ENDBLK
  5
5A
330
58
100
AcDbEntity
  8
0
100
AcDbBlockEnd
  0
BLOCK
  5
5C
330
5B
100
AcDbEntity
  8
0
100
AcDbBlockBegin
  2
*D27
 70
    1
 10
0
 20
0
  3
*D27
  1

  0
LINE
  5
B8
100
AcDbEntity
  8
Dimensions
  6
ByBlock
 62
    0
370
   -2
100
AcDbLine
 10
128.8636363636
 20
413
 11
152.0454545454
 21
413
  0
SOLID
  5
B9
100
AcDbEntity
  8
Dimensions
  6
ByBlock
 62
    0
370
   -2
100
AcDbTrace
 10
128.8636363636
 20
413
 30
0
 11
135.1136363636
 21
414.0407116444321
 31
0
 12
135.1136363636
 22
411.9592883555679
 32
0
 13
135.1136363636
 23
411.9592883555679
 33
0
  0
SOLID
  5
BA
100
AcDbEntity
  8
Dimensions
  6
ByBlock
 62
    0
370
   -2
100
AcDbTrace
 10
152.0454545454
 20
413
 30
0
 11
145.7954545454
 21
411.9592883555679
 31
0
 12
145.7954545454
 22
414.0407116444321
 32
0
 13
145.7954545454
 23
414.0407116444321
 33
0
  0
MTEXT
  5
BB
100
AcDbEntity
  8
Dimensions
  6
CONTINUOUS
 62
    0
370
   -2
100
AcDbMText
 10
140.4545454545
 20
417.6875
 30
0
 40
6.25
 41
18.40277777777817
 71
    5
 72
    1
  1
23,18
  7
STANDARD
210
0
220
0
230
1
 50
0
 73
    2
 44
1
  0
LINE
  5
BC
100
AcDbEntity
  8
Dimensions
  6
ByBlock
 62
    0
370
   -2
100
AcDbLine
 10
128.8636363636
 20
384.0625
 11
128.8636363636
 21
416.125
  0
LINE
  5
BD
100
AcDbEntity
  8
Dimensions
  6
ByBlock
 62
    0
370
   -2
100
AcDbLine
 10
152.0454545454
 20
384.0625
 11
152.0454545454
 21
416.125
  0
ENDBLK
  5
5D
330
5B
100
AcDbEntity
  8
0
100
AcDbBlockEnd
  0
BLOCK
  5
5F
330
5E
100
AcDbEntity
  8
0
100
AcDbBlockBegin
  2
*D4
 70
    1
 10
0
 20
0
  3
*D4
  1

  0
LINE
  5
BE
100
AcDbEntity
  8
Dimensions
  6
ByBlock
 62
    0
370
   -2
100
AcDbLine
 10
480
 20
85.50000000000001
 11
480
 21
0
  0
SOLID
  5
BF
100
AcDbEntity
  8
Dimensions
  6
ByBlock
 62
    0
370
   -2
100
AcDbTrace
 10
480
 20
85.50000000000001
 30
0
 11
481.0407116444321
 21
79.25000000000001
 31
0
 12
478.9592883555679
 22
79.25000000000001
 32
0
 13
478.9592883555679
 23
79.25000000000001
 33
0
  0
SOLID
  5
C0
100
AcDbEntity
  8
Dimensions
  6
ByBlock
 62
    0
370
   -2
100
AcDbTrace
 10
480
 20
0
 30
0
 11
478.9592883555679
 21
6.25
 31
0
 12
481.0407116444321
 22
6.25
 32
0
 13
481.0407116444321
 23
6.25
 33
0
  0
MTEXT
  5
C1
100
AcDbEntity
  8
Dimensions
  6
CONTINUOUS
 62
    0
370
   -2
100
AcDbMText
 10
475.3125
 20
42.75000000000001
 30
0
 40
6.25
 41
14.93055555555633
 71
    5
 72
    1
  1
85,5
  7
STANDARD
210
0
220
0
230
1
 50
90
 73
    2
 44
1
  0
LINE
  5
C2
100
AcDbEntity
  8
Dimensions
  6
ByBlock
 62
    0
370
   -2
100
AcDbLine
 10
367.4715909089
 20
85.5
 11
483.125
 21
85.50000000000001
  0
LINE
  5
C3
100
AcDbEntity
  8
Dimensions
  6
ByBlock
 62
    0
370
   -2
100
AcDbLine
 10
367.4715909089
 20
0
 11
483.125
 21
0
  0
ENDBLK
  5
60
330
5E
100
AcDbEntity
  8
0
100
AcDbBlockEnd
  0
BLOCK
  5
62
330
61
100
AcDbEntity
  8
0
100
AcDbBlockBegin
  2
*D12
 70
    1
 10
0
 20
0
  3
*D12
  1

  0
LINE
  5
C4
100
AcDbEntity
  8
Dimensions
  6
ByBlock
 62
    0
370
   -2
100
AcDbLine
 10
-10.00000000000001
 20
402.5
 11
-10.00000000000001
 21
450
  0
SOLID
  5
C5
100
AcDbEntity
  8
Dimensions
  6
ByBlock
 62
    0
370
   -2
100
AcDbTrace
 10
-10.00000000000001
 20
402.5
 30
0
 11
-11.04071164443211
 21
408.75
 31
0
 12
-8.95928835556791
 22
408.75
 32
0
 13
-8.95928835556791
 23
408.75
 33
0
  0
SOLID
  5
C6
100
AcDbEntity
  8
Dimensions
  6
ByBlock
 62
    0
370
   -2
100
AcDbTrace
 10
-10.00000000000001
 20
450
 30
0
 11
-8.95928835556791
 21
443.75
 31
0
 12
-11.04071164443211
 22
443.75
 32
0
 13
-11.04071164443211
 23
443.75
 33
0
  0
MTEXT
  5
C7
100
AcDbEntity
  8
Dimensions
  6
CONTINUOUS
 62
    0
370
   -2
100
AcDbMText
 10
-14.68750000000001
 20
426.25
 30
0
 40
6.25
 41
15.62500000000039
 71
    5
 72
    1
  1
47,5
  7
STANDARD
210
0
220
0
230
1
 50
90
 73
    2
 44
1
  0
LINE
  5
C8
100
AcDbEntity
  8
Dimensions
  6
ByBlock
 62
    0
370
   -2
100
AcDbLine
 10
46.25943029137293
 20
402.5
 11
-13.12500000000001
 21
402.5
  0
LINE
  5
C9
100
AcDbEntity
  8
Dimensions
  6
ByBlock
 62
    0
370
   -2
100
AcDbLine
 10
46.25943029137293
 20
450
 11
-13.12500000000001
 21
450
  0
ENDBLK
  5
63
330
61
100
AcDbEntity
  8
0
100
AcDbBlockEnd
  0
BLOCK
  5
65
330
64
100
AcDbEntity
  8
0
100
AcDbBlockBegin
  2
*D25
 70
    1
 10
0
 20
0
  3
*D25
  1

  0
LINE
  5
CA
100
AcDbEntity
  8
Dimensions
  6
ByBlock
 62
    0
370
   -2
100
AcDbLine
 10
-29.99999999999997
 20
435
 11
-30
 21
15
  0
SOLID
  5
CB
100
AcDbEntity
  8
Dimensions
  6
ByBlock
 62
    0
370
   -2
100
AcDbTrace
 10
-29.99999999999997
 20
435
 30
0
 11
-28.95928835556787
 21
428.75
 31
0
 12
-31.04071164443207
 22
428.75
 32
0
 13
-31.04071164443207
 23
428.75
 33
0
  0
SOLID
  5
CC
100
AcDbEntity
  8
Dimensions
  6
ByBlock
 62
    0
370
   -2
100
AcDbTrace
 10
-30
 20
15
 30
0
 11
-31.0407116444321
 21
21.25
 31
0
 12
-28.9592883555679
 22
21.25
 32
0
 13
-28.9592883555679
 23
21.25
 33
0
  0
MTEXT
  5
CD
100
AcDbEntity
  8
Dimensions
  6
CONTINUOUS
 62
    0
370
   -2
100
AcDbMText
 10
-34.68749999999999
 20
225
 30
0
 40
6.25
 41
13.19444444444444
 71
    5
 72
    1
  1
420
  7
STANDARD
210
0
220
0
230
1
 50
90
 73
    2
 44
1
  0
LINE
  5
CE
100
AcDbEntity
  8
Dimensions
  6
ByBlock
 62
    0
370
   -2
100
AcDbLine
 10
-1.5625
 20
435
 11
-33.12499999999997
 21
435
  0
LINE
  5
CF
100
AcDbEntity
  8
Dimensions
  6
ByBlock
 62
    0
370
   -2
100
AcDbLine
 10
-1.5625
 20
15
 11
-33.125
 21
15
  0
ENDBLK
  5
66
330
64
100
AcDbEntity
  8
0
100
AcDbBlockEnd
  0
BLOCK
  5
68
330
67
100
AcDbEntity
  8
0
100
AcDbBlockBegin
  2
*D6
 70
    1
 10
0
 20
0
  3
*D6
  1

  0
LINE
  5
D0
100
AcDbEntity
  8
Dimensions
  6
ByBlock
 62
    0
370
   -2
100
AcDbLine
 10
225
 20
-30
 11
0
 21
-30
  0
SOLID
  5
D1
100
AcDbEntity
  8
Dimensions
  6
ByBlock
 62
    0
370
   -2
100
AcDbTrace
 10
225
 20
-30
 30
0
 11
218.75
 21
-31.0407116444321
 31
0
 12
218.75
 22
-28.9592883555679
 32
0
 13
218.75
 23
-28.9592883555679
 33
0
  0
SOLID
  5
D2
100
AcDbEntity
  8
Dimensions
  6
ByBlock
 62
    0
370
   -2
100
AcDbTrace
 10
0
 20
-30
 30
0
 11
6.25
 21
-28.9592883555679
 31
0
 12
6.25
 22
-31.0407116444321
 32
0
 13
6.25
 23
-31.0407116444321
 33
0
  0
MTEXT
  5
D3
100
AcDbEntity
  8
Dimensions
  6
CONTINUOUS
 62
    0
370
   -2
100
AcDbMText
 10
112.5
 20
-25.3125
 30
0
 40
6.25
 41
12.50000000000039
 71
    5
 72
    1
  1
225
  7
STANDARD
210
0
220
0
230
1
 50
360
 73
    2
 44
1
  0
LINE
  5
D4
100
AcDbEntity
  8
Dimensions
  6
ByBlock
 62
    0
370
   -2
100
AcDbLine
 10
225
 20
53.4375
 11
225
 21
-33.125
  0
LINE
  5
D5
100
AcDbEntity
  8
Dimensions
  6
ByBlock
 62
    0
370
   -2
100
AcDbLine
 10
-2.870171141771197e-016
 20
53.4375
 11
-5.740342283542393e-016
 21
-33.125
  0
ENDBLK
  5
69
330
67
100
AcDbEntity
  8
0
100
AcDbBlockEnd
  0
BLOCK
  5
6B
330
6A
100
AcDbEntity
  8
0
100
AcDbBlockBegin
  2
*D20
 70
    1
 10
0
 20
0
  3
*D20
  1

  0
LINE
  5
D6
100
AcDbEntity
  8
Dimensions
  6
ByBlock
 62
    0
370
   -2
100
AcDbLine
 10
40
 20
349
 11
40
 21
318
  0
SOLID
  5
D7
100
AcDbEntity
  8
Dimensions
  6
ByBlock
 62
    0
370
   -2
100
AcDbTrace
 10
40
 20
349
 30
0
 11
41.0407116444321
 21
342.75
 31
0
 12
38.9592883555679
 22
342.75
 32
0
 13
38.9592883555679
 23
342.75
 33
0
  0
SOLID
  5
D8
100
AcDbEntity
  8
Dimensions
  6
ByBlock
 62
    0
370
   -2
100
AcDbTrace
 10
40
 20
318
 30
0
 11
38.9592883555679
 21
324.25
 31
0
 12
41.0407116444321
 22
324.25
 32
0
 13
41.0407116444321
 23
324.25
 33
0
  0
MTEXT
  5
D9
100
AcDbEntity
  8
Dimensions
  6
CONTINUOUS
 62
    0
370
   -2
100
AcDbMText
 10
35.3125
 20
333.5
 30
0
 40
6.25
 41
6.250000000000387
 71
    5
 72
    1
  1
31
  7
STANDARD
210
0
220
0
230
1
 50
90
 73
    2
 44
1
  0
LINE
  5
DA
100
AcDbEntity
  8
Dimensions
  6
ByBlock
 62
    0
370
   -2
100
AcDbLine
 10
60.9375
 20
349
 11
36.875
 21
349
  0
LINE
  5
DB
100
AcDbEntity
  8
Dimensions
  6
ByBlock
 62
    0
370
   -2
100
AcDbLine
 10
60.9375
 20
318
 11
36.875
 21
318
  0
ENDBLK
  5
6C
330
6A
100
AcDbEntity
  8
0
100
AcDbBlockEnd
  0
BLOCK
  5
6E
330
6D
100
AcDbEntity
  8
0
100
AcDbBlockBegin
  2
*D7
 70
    1
 10
0
 20
0
  3
*D7
  1

  0
LINE
  5
DC
100
AcDbEntity
  8
Dimensions
  6
ByBlock
 62
    0
370
   -2
100
AcDbLine
 10
47.5
 20
460
 11
402.5
 21
460
  0
SOLID
  5
DD
100
AcDbEntity
  8
Dimensions
  6
ByBlock
 62
    0
370
   -2
100
AcDbTrace
 10
47.5
 20
460
 30
0
 11
53.75
 21
461.0407116444321
 31
0
 12
53.75
 22
458.9592883555679
 32
0
 13
53.75
 23
458.9592883555679
 33
0
  0
SOLID
  5
DE
100
AcDbEntity
  8
Dimensions
  6
ByBlock
 62
    0
370
   -2
100
AcDbTrace
 10
402.5
 20
460
 30
0
 11
396.25
 21
458.9592883555679
 31
0
 12
396.25
 22
461.0407116444321
 32
0
 13
396.25
 23
461.0407116444321
 33
0
  0
MTEXT
  5
DF
100
AcDbEntity
  8
Dimensions
  6
CONTINUOUS
 62
    0
370
   -2
100
AcDbMText
 10
225
 20
464.6875
 30
0
 40
6.25
 41
12.50000000000116
 71
    5
 72
    1
  1
355
  7
STANDARD
210
0
220
0
230
1
 50
0
 73
    2
 44
1
  0
LINE
  5
E0
100
AcDbEntity
  8
Dimensions
  6
ByBlock
 62
    0
370
   -2
100
AcDbLine
 10
47.5
 20
404.0625
 11
47.5
 21
463.125
  0
LINE
  5
E1
100
AcDbEntity
  8
Dimensions
  6
ByBlock
 62
    0
370
   -2
100
AcDbLine
 10
402.5
 20
404.0625
 11
402.5
 21
463.125
  0
ENDBLK
  5
6F
330
6D
100
AcDbEntity
  8
0
100
AcDbBlockEnd
  0
BLOCK
  5
71
330
70
100
AcDbEntity
  8
0
100
AcDbBlockBegin
  2
*D1
 70
    1
 10
0
 20
0
  3
*D1
  1

  0
LINE
  5
E2
100
AcDbEntity
  8
Dimensions
  6
ByBlock
 62
    0
370
   -2
100
AcDbLine
 10
425
 20
-20
 11
450
 21
-20
  0
SOLID
  5
E3
100
AcDbEntity
  8
Dimensions
  6
ByBlock
 62
    0
370
   -2
100
AcDbTrace
 10
425
 20
-20
 30
0
 11
431.25
 21
-18.9592883555679
 31
0
 12
431.25
 22
-21.0407116444321
 32
0
 13
431.25
 23
-21.0407116444321
 33
0
  0
SOLID
  5
E4
100
AcDbEntity
  8
Dimensions
  6
ByBlock
 62
    0
370
   -2
100
AcDbTrace
 10
450
 20
-20
 30
0
 11
443.75
 21
-21.0407116444321
 31
0
 12
443.75
 22
-18.9592883555679
 32
0
 13
443.75
 23
-18.9592883555679
 33
0
  0
MTEXT
  5
E5
100
AcDbEntity
  8
Dimensions
  6
CONTINUOUS
 62
    0
370
   -2
100
AcDbMText
 10
437.5
 20
-15.3125
 30
0
 40
6.25
 41
7.638888888889277
 71
    5
 72
    1
  1
25
  7
STANDARD
210
0
220
0
230
1
 50
0
 73
    2
 44
1
  0
LINE
  5
E6
100
AcDbEntity
  8
Dimensions
  6
ByBlock
 62
    0
370
   -2
100
AcDbLine
 10
425
 20
23.4375
 11
425
 21
-23.125
  0
LINE
  5
E7
100
AcDbEntity
  8
Dimensions
  6
ByBlock
 62
    0
370
   -2
100
AcDbLine
 10
450
 20
23.4375
 11
450
 21
-23.125
  0
ENDBLK
  5
72
330
70
100
AcDbEntity
  8
0
100
AcDbBlockEnd
  0
BLOCK
  5
74
330
73
100
AcDbEntity
  8
0
100
AcDbBlockBegin
  2
*D8
 70
    1
 10
0
 20
0
  3
*D8
  1

  0
LINE
  5
E8
100
AcDbEntity
  8
Dimensions
  6
ByBlock
 62
    0
370
   -2
100
AcDbLine
 10
0
 20
480
 11
450
 21
480
  0
SOLID
  5
E9
100
AcDbEntity
  8
Dimensions
  6
ByBlock
 62
    0
370
   -2
100
AcDbTrace
 10
0
 20
480
 30
0
 11
6.25
 21
481.0407116444321
 31
0
 12
6.25
 22
478.9592883555679
 32
0
 13
6.25
 23
478.9592883555679
 33
0
  0
SOLID
  5
EA
100
AcDbEntity
  8
Dimensions
  6
ByBlock
 62
    0
370
   -2
100
AcDbTrace
 10
450
 20
480
 30
0
 11
443.75
 21
478.9592883555679
 31
0
 12
443.75
 22
481.0407116444321
 32
0
 13
443.75
 23
481.0407116444321
 33
0
  0
MTEXT
  5
EB
100
AcDbEntity
  8
Dimensions
  6
CONTINUOUS
 62
    0
370
   -2
100
AcDbMText
 10
225
 20
484.6875
 30
0
 40
6.25
 41
13.19444444444483
 71
    5
 72
    1
  1
450
  7
STANDARD
210
0
220
0
230
1
 50
0
 73
    2
 44
1
  0
LINE
  5
EC
100
AcDbEntity
  8
Dimensions
  6
ByBlock
 62
    0
370
   -2
100
AcDbLine
 10
9.567237139237322e-017
 20
451.5625
 11
1.913447427847464e-016
 21
483.125
  0
LINE
  5
ED
100
AcDbEntity
  8
Dimensions
  6
ByBlock
 62
    0
370
   -2
100
AcDbLine
 10
450
 20
451.5625
 11
450
 21
483.125
  0
ENDBLK
  5
75
330
73
100
AcDbEntity
  8
0
100
AcDbBlockEnd
  0
BLOCK
  5
77
330
76
100
AcDbEntity
  8
0
100
AcDbBlockBegin
  2
*D10
 70
    1
 10
0
 20
0
  3
*D10
  1

  0
LINE
  5
EE
100
AcDbEntity
  8
Dimensions
  6
ByBlock
 62
    0
370
   -2
100
AcDbLine
 10
-10.00000000000002
 20
62.5
 11
-10
 21
387.5
  0
SOLID
  5
EF
100
AcDbEntity
  8
Dimensions
  6
ByBlock
 62
    0
370
   -2
100
AcDbTrace
 10
-10.00000000000002
 20
62.5
 30
0
 11
-11.04071164443212
 21
68.75
 31
0
 12
-8.959288355567915
 22
68.75
 32
0
 13
-8.959288355567915
 23
68.75
 33
0
  0
SOLID
  5
F0
100
AcDbEntity
  8
Dimensions
  6
ByBlock
 62
    0
370
   -2
100
AcDbTrace
 10
-10
 20
387.5
 30
0
 11
-8.959288355567899
 21
381.25
 31
0
 12
-11.0407116444321
 22
381.25
 32
0
 13
-11.0407116444321
 23
381.25
 33
0
  0
MTEXT
  5
F1
100
AcDbEntity
  8
Dimensions
  6
CONTINUOUS
 62
    0
370
   -2
100
AcDbMText
 10
-14.68750000000001
 20
225
 30
0
 40
6.25
 41
12.50000000000077
 71
    5
 72
    1
  1
325
  7
STANDARD
210
0
220
0
230
1
 50
90
 73
    2
 44
1
  0
LINE
  5
F2
100
AcDbEntity
  8
Dimensions
  6
ByBlock
 62
    0
370
   -2
100
AcDbLine
 10
45.9375
 20
62.5
 11
-13.12500000000002
 21
62.5
  0
LINE
  5
F3
100
AcDbEntity
  8
Dimensions
  6
ByBlock
 62
    0
370
   -2
100
AcDbLine
 10
45.9375
 20
387.5
 11
-13.125
 21
387.5
  0
ENDBLK
  5
78
330
76
100
AcDbEntity
  8
0
100
AcDbBlockEnd
  0
BLOCK
  5
7A
330
79
100
AcDbEntity
  8
0
100
AcDbBlockBegin
  2
*D15
 70
    1
 10
0
 20
0
  3
*D15
  1

  0
LINE
  5
F4
100
AcDbEntity
  8
Dimensions
  6
ByBlock
 62
    0
370
   -2
100
AcDbLine
 10
-9.999999999999996
 20
55.00000000000001
 11
-10
 21
3.463895836830489e-015
  0
SOLID
  5
F5
100
AcDbEntity
  8
Dimensions
  6
ByBlock
 62
    0
370
   -2
100
AcDbTrace
 10
-9.999999999999996
 20
55.00000000000001
 30
0
 11
-8.959288355567896
 21
48.75000000000001
 31
0
 12
-11.0407116444321
 22
48.75000000000001
 32
0
 13
-11.0407116444321
 23
48.75000000000001
 33
0
  0
SOLID
  5
F6
100
AcDbEntity
  8
Dimensions
  6
ByBlock
 62
    0
370
   -2
100
AcDbTrace
 10
-10
 20
3.463895836830489e-015
 30
0
 11
-11.0407116444321
 21
6.250000000000004
 31
0
 12
-8.959288355567898
 22
6.250000000000004
 32
0
 13
-8.959288355567898
 23
6.250000000000004
 33
0
  0
MTEXT
  5
F7
100
AcDbEntity
  8
Dimensions
  6
CONTINUOUS
 62
    0
370
   -2
100
AcDbMText
 10
-14.6875
 20
27.5
 30
0
 40
6.25
 41
7.638888888889664
 71
    5
 72
    1
  1
55
  7
STANDARD
210
0
220
0
230
1
 50
90
 73
    2
 44
1
  0
LINE
  5
F8
100
AcDbEntity
  8
Dimensions
  6
ByBlock
 62
    0
370
   -2
100
AcDbLine
 10
53.4375
 20
55
 11
-13.125
 21
55.00000000000001
  0
LINE
  5
F9
100
AcDbEntity
  8
Dimensions
  6
ByBlock
 62
    0
370
   -2
100
AcDbLine
 10
53.4375
 20
1.913447427847464e-016
 11
-13.125
 21
3.846585322399982e-015
  0
ENDBLK
  5
7B
330
79
100
AcDbEntity
  8
0
100
AcDbBlockEnd
  0
BLOCK
  5
7D
330
7C
100
AcDbEntity
  8
0
100
AcDbBlockBegin
  2
*D14
 70
    1
 10
0
 20
0
  3
*D14
  1

  0
LINE
  5
FA
100
AcDbEntity
  8
Dimensions
  6
ByBlock
 62
    0
370
   -2
100
AcDbLine
 10
225
 20
30
 11
47.5
 21
30
  0
SOLID
  5
FB
100
AcDbEntity
  8
Dimensions
  6
ByBlock
 62
    0
370
   -2
100
AcDbTrace
 10
225
 20
30
 30
0
 11
218.75
 21
28.9592883555679
 31
0
 12
218.75
 22
31.0407116444321
 32
0
 13
218.75
 23
31.0407116444321
 33
0
  0
SOLID
  5
FC
100
AcDbEntity
  8
Dimensions
  6
ByBlock
 62
    0
370
   -2
100
AcDbTrace
 10
47.5
 20
30
 30
0
 11
53.75
 21
31.0407116444321
 31
0
 12
53.75
 22
28.9592883555679
 32
0
 13
53.75
 23
28.9592883555679
 33
0
  0
MTEXT
  5
FD
100
AcDbEntity
  8
Dimensions
  6
CONTINUOUS
 62
    0
370
   -2
100
AcDbMText
 10
136.25
 20
34.6875
 30
0
 40
6.25
 41
18.40277777777816
 71
    5
 72
    1
  1
177,5
  7
STANDARD
210
0
220
0
230
1
 50
360
 73
    2
 44
1
  0
LINE
  5
FE
100
AcDbEntity
  8
Dimensions
  6
ByBlock
 62
    0
370
   -2
100
AcDbLine
 10
225
 20
53.4375
 11
225
 21
26.875
  0
LINE
  5
FF
100
AcDbEntity
  8
Dimensions
  6
ByBlock
 62
    0
370
   -2
100
AcDbLine
 10
47.5
 20
53.4375
 11
47.5
 21
26.875
  0
ENDBLK
  5
7E
330
7C
100
AcDbEntity
  8
0
100
AcDbBlockEnd
  0
BLOCK
  5
80
330
7F
100
AcDbEntity
  8
0
100
AcDbBlockBegin
  2
*D23
 70
    1
 10
0
 20
0
  3
*D23
  1

  0
LINE
  5
100
100
AcDbEntity
  8
Dimensions
  6
ByBlock
 62
    0
370
   -2
100
AcDbLine
 10
420
 20
382.5
 11
420
 21
351.5
  0
SOLID
  5
101
100
AcDbEntity
  8
Dimensions
  6
ByBlock
 62
    0
370
   -2
100
AcDbTrace
 10
420
 20
382.5
 30
0
 11
421.0407116444321
 21
376.25
 31
0
 12
418.9592883555679
 22
376.25
 32
0
 13
418.9592883555679
 23
376.25
 33
0
  0
SOLID
  5
102
100
AcDbEntity
  8
Dimensions
  6
ByBlock
 62
    0
370
   -2
100
AcDbTrace
 10
420
 20
351.5
 30
0
 11
418.9592883555679
 21
357.75
 31
0
 12
421.0407116444321
 22
357.75
 32
0
 13
421.0407116444321
 23
357.75
 33
0
  0
MTEXT
  5
103
100
AcDbEntity
  8
Dimensions
  6
CONTINUOUS
 62
    0
370
   -2
100
AcDbMText
 10
415.3125
 20
367
 30
0
 40
6.25
 41
6.250000000000387
 71
    5
 72
    1
  1
31
  7
STANDARD
210
0
220
0
230
1
 50
90
 73
    2
 44
1
  0
LINE
  5
104
100
AcDbEntity
  8
Dimensions
  6
ByBlock
 62
    0
370
   -2
100
AcDbLine
 10
384.0625
 20
382.5
 11
423.125
 21
382.5
  0
LINE
  5
105
100
AcDbEntity
  8
Dimensions
  6
ByBlock
 62
    0
370
   -2
100
AcDbLine
 10
384.0625
 20
351.5
 11
423.125
 21
351.5
  0
ENDBLK
  5
81
330
7F
100
AcDbEntity
  8
0
100
AcDbBlockEnd
  0
BLOCK
  5
83
330
82
100
AcDbEntity
  8
0
100
AcDbBlockBegin
  2
*D2
 70
    1
 10
0
 20
0
  3
*D2
  1

  0
LINE
  5
106
100
AcDbEntity
  8
Dimensions
  6
ByBlock
 62
    0
370
   -2
100
AcDbLine
 10
365.9090909089
 20
-30
 11
450
 21
-30
  0
SOLID
  5
107
100
AcDbEntity
  8
Dimensions
  6
ByBlock
 62
    0
370
   -2
100
AcDbTrace
 10
365.9090909089
 20
-30
 30
0
 11
372.1590909089
 21
-28.9592883555679
 31
0
 12
372.1590909089
 22
-31.0407116444321
 32
0
 13
372.1590909089
 23
-31.0407116444321
 33
0
  0
SOLID
  5
108
100
AcDbEntity
  8
Dimensions
  6
ByBlock
 62
    0
370
   -2
100
AcDbTrace
 10
450
 20
-30
 30
0
 11
443.75
 21
-31.0407116444321
 31
0
 12
443.75
 22
-28.9592883555679
 32
0
 13
443.75
 23
-28.9592883555679
 33
0
  0
MTEXT
  5
109
100
AcDbEntity
  8
Dimensions
  6
CONTINUOUS
 62
    0
370
   -2
100
AcDbMText
 10
407.95454545445
 20
-25.3125
 30
0
 40
6.25
 41
20.48611111111111
 71
    5
 72
    1
  1
84,09
  7
STANDARD
210
0
220
0
230
1
 50
0
 73
    2
 44
1
  0
LINE
  5
10A
100
AcDbEntity
  8
Dimensions
  6
ByBlock
 62
    0
370
   -2
100
AcDbLine
 10
365.9090909089
 20
83.9375
 11
365.9090909089
 21
-33.125
  0
LINE
  5
10B
100
AcDbEntity
  8
Dimensions
  6
ByBlock
 62
    0
370
   -2
100
AcDbLine
 10
450
 20
83.9375
 11
450
 21
-33.125
  0
ENDBLK
  5
84
330
82
100
AcDbEntity
  8
0
100
AcDbBlockEnd
  0
BLOCK
  5
86
330
85
100
AcDbEntity
  8
0
100
AcDbBlockBegin
  2
*D9
 70
    1
 10
0
 20
0
  3
*D9
  1

  0
LINE
  5
10C
100
AcDbEntity
  8
Dimensions
  6
ByBlock
 62
    0
370
   -2
100
AcDbLine
 10
410
 20
460
 11
435
 21
460
  0
SOLID
  5
10D
100
AcDbEntity
  8
Dimensions
  6
ByBlock
 62
    0
370
   -2
100
AcDbTrace
 10
410
 20
460
 30
0
 11
416.25
 21
461.0407116444321
 31
0
 12
416.25
 22
458.9592883555679
 32
0
 13
416.25
 23
458.9592883555679
 33
0
  0
SOLID
  5
10E
100
AcDbEntity
  8
Dimensions
  6
ByBlock
 62
    0
370
   -2
100
AcDbTrace
 10
435
 20
460
 30
0
 11
428.75
 21
458.9592883555679
 31
0
 12
428.75
 22
461.0407116444321
 32
0
 13
428.75
 23
461.0407116444321
 33
0
  0
MTEXT
  5
10F
100
AcDbEntity
  8
Dimensions
  6
CONTINUOUS
 62
    0
370
   -2
100
AcDbMText
 10
422.5
 20
464.6875
 30
0
 40
6.25
 41
7.638888888889277
 71
    5
 72
    1
  1
25
  7
STANDARD
210
0
220
0
230
1
 50
0
 73
    2
 44
1
  0
LINE
  5
110
100
AcDbEntity
  8
Dimensions
  6
ByBlock
 62
    0
370
   -2
100
AcDbLine
 10
410
 20
416.5625
 11
410
 21
463.125
  0
LINE
  5
111
100
AcDbEntity
  8
Dimensions
  6
ByBlock
 62
    0
370
   -2
100
AcDbLine
 10
435
 20
416.5625
 11
435
 21
463.125
  0
ENDBLK
  5
87
330
85
100
AcDbEntity
  8
0
100
AcDbBlockEnd
  0
BLOCK
  5
89
330
88
100
AcDbEntity
  8
0
100
AcDbBlockBegin
  2
*D3
 70
    1
 10
0
 20
0
  3
*D3
  1

  0
LINE
  5
112
100
AcDbEntity
  8
Dimensions
  6
ByBlock
 62
    0
370
   -2
100
AcDbLine
 10
470
 20
25
 11
470
 21
0
  0
SOLID
  5
113
100
AcDbEntity
  8
Dimensions
  6
ByBlock
 62
    0
370
   -2
100
AcDbTrace
 10
470
 20
25
 30
0
 11
471.0407116444321
 21
18.75
 31
0
 12
468.9592883555679
 22
18.75
 32
0
 13
468.9592883555679
 23
18.75
 33
0
  0
SOLID
  5
114
100
AcDbEntity
  8
Dimensions
  6
ByBlock
 62
    0
370
   -2
100
AcDbTrace
 10
470
 20
0
 30
0
 11
468.9592883555679
 21
6.25
 31
0
 12
471.0407116444321
 22
6.25
 32
0
 13
471.0407116444321
 23
6.25
 33
0
  0
MTEXT
  5
115
100
AcDbEntity
  8
Dimensions
  6
CONTINUOUS
 62
    0
370
   -2
100
AcDbMText
 10
465.3125
 20
12.5
 30
0
 40
6.25
 41
7.638888888889277
 71
    5
 72
    1
  1
25
  7
STANDARD
210
0
220
0
230
1
 50
90
 73
    2
 44
1
  0
LINE
  5
116
100
AcDbEntity
  8
Dimensions
  6
ByBlock
 62
    0
370
   -2
100
AcDbLine
 10
426.5625
 20
25
 11
473.125
 21
25
  0
LINE
  5
117
100
AcDbEntity
  8
Dimensions
  6
ByBlock
 62
    0
370
   -2
100
AcDbLine
 10
426.5625
 20
0
 11
473.125
 21
0
  0
ENDBLK
  5
8A
330
88
100
AcDbEntity
  8
0
100
AcDbBlockEnd
  0
BLOCK
  5
8C
330
8B
100
AcDbEntity
  8
0
100
AcDbBlockBegin
  2
*D24
 70
    1
 10
0
 20
0
  3
*D24
  1

  0
LINE
  5
118
100
AcDbEntity
  8
Dimensions
  6
ByBlock
 62
    0
370
   -2
100
AcDbLine
 10
420
 20
346.5
 11
420
 21
320.5
  0
SOLID
  5
119
100
AcDbEntity
  8
Dimensions
  6
ByBlock
 62
    0
370
   -2
100
AcDbTrace
 10
420
 20
346.5
 30
0
 11
421.0407116444321
 21
340.25
 31
0
 12
418.9592883555679
 22
340.25
 32
0
 13
418.9592883555679
 23
340.25
 33
0
  0
SOLID
  5
11A
100
AcDbEntity
  8
Dimensions
  6
ByBlock
 62
    0
370
   -2
100
AcDbTrace
 10
420
 20
320.5
 30
0
 11
418.9592883555679
 21
326.75
 31
0
 12
421.0407116444321
 22
326.75
 32
0
 13
421.0407116444321
 23
326.75
 33
0
  0
MTEXT
  5
11B
100
AcDbEntity
  8
Dimensions
  6
CONTINUOUS
 62
    0
370
   -2
100
AcDbMText
 10
415.3125
 20
333.5
 30
0
 40
6.25
 41
7.638888888889277
 71
    5
 72
    1
  1
26
  7
STANDARD
210
0
220
0
230
1
 50
90
 73
    2
 44
1
  0
LINE
  5
11C
100
AcDbEntity
  8
Dimensions
  6
ByBlock
 62
    0
370
   -2
100
AcDbLine
 10
384.0625
 20
346.5
 11
423.125
 21
346.5
  0
LINE
  5
11D
100
AcDbEntity
  8
Dimensions
  6
ByBlock
 62
    0
370
   -2
100
AcDbLine
 10
384.0625
 20
320.5
 11
423.125
 21
320.5
  0
ENDBLK
  5
8D
330
8B
100
AcDbEntity
  8
0
100
AcDbBlockEnd
  0
BLOCK
  5
8F
330
8E
100
AcDbEntity
  8
0
100
AcDbBlockBegin
  2
*D11
 70
    1
 10
0
 20
0
  3
*D11
  1

  0
LINE
  5
11E
100
AcDbEntity
  8
Dimensions
  6
ByBlock
 62
    0
370
   -2
100
AcDbLine
 10
47.5
 20
460
 11
-3.944304526105059e-031
 21
460
  0
SOLID
  5
11F
100
AcDbEntity
  8
Dimensions
  6
ByBlock
 62
    0
370
   -2
100
AcDbTrace
 10
47.5
 20
460
 30
0
 11
41.25
 21
458.9592883555679
 31
0
 12
41.25
 22
461.0407116444321
 32
0
 13
41.25
 23
461.0407116444321
 33
0
  0
SOLID
  5
120
100
AcDbEntity
  8
Dimensions
  6
ByBlock
 62
    0
370
   -2
100
AcDbTrace
 10
-3.944304526105059e-031
 20
460
 30
0
 11
6.25
 21
461.0407116444321
 31
0
 12
6.25
 22
458.9592883555679
 32
0
 13
6.25
 23
458.9592883555679
 33
0
  0
MTEXT
  5
121
100
AcDbEntity
  8
Dimensions
  6
CONTINUOUS
 62
    0
370
   -2
100
AcDbMText
 10
23.75
 20
464.6875
 30
0
 40
6.25
 41
15.62500000000039
 71
    5
 72
    1
  1
47,5
  7
STANDARD
210
0
220
0
230
1
 50
360
 73
    2
 44
1
  0
LINE
  5
122
100
AcDbEntity
  8
Dimensions
  6
ByBlock
 62
    0
370
   -2
100
AcDbLine
 10
47.5
 20
404.0625
 11
47.5
 21
463.125
  0
LINE
  5
123
100
AcDbEntity
  8
Dimensions
  6
ByBlock
 62
    0
370
   -2
100
AcDbLine
 10
9.567237139237322e-017
 20
404.0625
 11
1.913447427847461e-016
 21
463.125
  0
ENDBLK
  5
90
330
8E
100
AcDbEntity
  8
0
100
AcDbBlockEnd
  0
BLOCK
  5
92
330
91
100
AcDbEntity
  8
0
100
AcDbBlockBegin
  2
*D16
 70
    1
 10
0
 20
0
  3
*D16
  1

  0
LINE
  5
124
100
AcDbEntity
  8
Dimensions
  6
ByBlock
 62
    0
370
   -2
100
AcDbLine
 10
29.99999999999999
 20
62.5
 11
30
 21
225
  0
SOLID
  5
125
100
AcDbEntity
  8
Dimensions
  6
ByBlock
 62
    0
370
   -2
100
AcDbTrace
 10
29.99999999999999
 20
62.5
 30
0
 11
28.95928835556789
 21
68.75
 31
0
 12
31.04071164443209
 22
68.75
 32
0
 13
31.04071164443209
 23
68.75
 33
0
  0
SOLID
  5
126
100
AcDbEntity
  8
Dimensions
  6
ByBlock
 62
    0
370
   -2
100
AcDbTrace
 10
30
 20
225
 30
0
 11
31.0407116444321
 21
218.75
 31
0
 12
28.9592883555679
 22
218.75
 32
0
 13
28.9592883555679
 23
218.75
 33
0
  0
MTEXT
  5
127
100
AcDbEntity
  8
Dimensions
  6
CONTINUOUS
 62
    0
370
   -2
100
AcDbMText
 10
25.31249999999999
 20
143.75
 30
0
 40
6.25
 41
18.40277777777855
 71
    5
 72
    1
  1
162,5
  7
STANDARD
210
0
220
0
230
1
 50
90
 73
    2
 44
1
  0
LINE
  5
128
100
AcDbEntity
  8
Dimensions
  6
ByBlock
 62
    0
370
   -2
100
AcDbLine
 10
53.4375
 20
62.5
 11
26.87499999999999
 21
62.5
  0
LINE
  5
129
100
AcDbEntity
  8
Dimensions
  6
ByBlock
 62
    0
370
   -2
100
AcDbLine
 10
53.4375
 20
225
 11
26.875
 21
225
  0
ENDBLK
  5
93
330
91
100
AcDbEntity
  8
0
100
AcDbBlockEnd
  0
BLOCK
  5
95
330
94
100
AcDbEntity
  8
0
100
AcDbBlockBegin
  2
*D22
 70
    1
 10
0
 20
0
  3
*D22
  1

  0
LINE
  5
12A
100
AcDbEntity
  8
Dimensions
  6
ByBlock
 62
    0
370
   -2
100
AcDbLine
 10
98.18181818180001
 20
412.5
 11
126.3636363636
 21
412.5
  0
SOLID
  5
12B
100
AcDbEntity
  8
Dimensions
  6
ByBlock
 62
    0
370
   -2
100
AcDbTrace
 10
98.18181818180001
 20
412.5
 30
0
 11
104.4318181818
 21
413.5407116444321
 31
0
 12
104.4318181818
 22
411.4592883555679
 32
0
 13
104.4318181818
 23
411.4592883555679
 33
0
  0
SOLID
  5
12C
100
AcDbEntity
  8
Dimensions
  6
ByBlock
 62
    0
370
   -2
100
AcDbTrace
 10
126.3636363636
 20
412.5
 30
0
 11
120.1136363636
 21
411.4592883555679
 31
0
 12
120.1136363636
 22
413.5407116444321
 32
0
 13
120.1136363636
 23
413.5407116444321
 33
0
  0
MTEXT
  5
12D
100
AcDbEntity
  8
Dimensions
  6
CONTINUOUS
 62
    0
370
   -2
100
AcDbMText
 10
112.2727272727
 20
417.1875
 30
0
 40
6.25
 41
18.40277777777778
 71
    5
 72
    1
  1
28,18
  7
STANDARD
210
0
220
0
230
1
 50
0
 73
    2
 44
1
  0
LINE
  5
12E
100
AcDbEntity
  8
Dimensions
  6
ByBlock
 62
    0
370
   -2
100
AcDbLine
 10
98.18181818180001
 20
389.0625
 11
98.18181818180001
 21
415.625
  0
LINE
  5
12F
100
AcDbEntity
  8
Dimensions
  6
ByBlock
 62
    0
370
   -2
100
AcDbLine
 10
126.3636363636
 20
389.0625
 11
126.3636363636
 21
415.625
  0
ENDBLK
  5
96
330
94
100
AcDbEntity
  8
0
100
AcDbBlockEnd
  0
BLOCK
  5
98
330
97
100
AcDbEntity
  8
0
100
AcDbBlockBegin
  2
*D18
 70
    1
 10
0
 20
0
  3
*D18
  1

  0
LINE
  5
130
100
AcDbEntity
  8
Dimensions
  6
ByBlock
 62
    0
370
   -2
100
AcDbLine
 10
337.7272727270999
 20
30
 11
365.9090909089
 21
30
  0
SOLID
  5
131
100
AcDbEntity
  8
Dimensions
  6
ByBlock
 62
    0
370
   -2
100
AcDbTrace
 10
337.7272727270999
 20
30
 30
0
 11
343.9772727270999
 21
31.0407116444321
 31
0
 12
343.9772727270999
 22
28.9592883555679
 32
0
 13
343.9772727270999
 23
28.9592883555679
 33
0
  0
SOLID
  5
132
100
AcDbEntity
  8
Dimensions
  6
ByBlock
 62
    0
370
   -2
100
AcDbTrace
 10
365.9090909089
 20
30
 30
0
 11
359.6590909089
 21
28.9592883555679
 31
0
 12
359.6590909089
 22
31.0407116444321
 32
0
 13
359.6590909089
 23
31.0407116444321
 33
0
  0
MTEXT
  5
133
100
AcDbEntity
  8
Dimensions
  6
CONTINUOUS
 62
    0
370
   -2
100
AcDbMText
 10
351.818181818
 20
34.6875
 30
0
 40
6.25
 41
18.40277777777778
 71
    5
 72
    1
  1
28,18
  7
STANDARD
210
0
220
0
230
1
 50
0
 73
    2
 44
1
  0
LINE
  5
134
100
AcDbEntity
  8
Dimensions
  6
ByBlock
 62
    0
370
   -2
100
AcDbLine
 10
337.7272727270999
 20
83.9375
 11
337.7272727270999
 21
26.875
  0
LINE
  5
135
100
AcDbEntity
  8
Dimensions
  6
ByBlock
 62
    0
370
   -2
100
AcDbLine
 10
365.9090909089
 20
83.9375
 11
365.9090909089
 21
26.875
  0
ENDBLK
  5
99
330
97
100
AcDbEntity
  8
0
100
AcDbBlockEnd
  0
BLOCK
  5
9B
330
9A
100
AcDbEntity
  8
0
100
AcDbBlockBegin
  2
*D21
 70
    1
 10
0
 20
0
  3
*D21
  1

  0
LINE
  5
136
100
AcDbEntity
  8
Dimensions
  6
ByBlock
 62
    0
370
   -2
100
AcDbLine
 10
62.49999999999999
 20
412.5
 11
98.18181818180001
 21
412.5
  0
SOLID
  5
137
100
AcDbEntity
  8
Dimensions
  6
ByBlock
 62
    0
370
   -2
100
AcDbTrace
 10
62.49999999999999
 20
412.5
 30
0
 11
68.75
 21
413.5407116444321
 31
0
 12
68.75
 22
411.4592883555679
 32
0
 13
68.75
 23
411.4592883555679
 33
0
  0
SOLID
  5
138
100
AcDbEntity
  8
Dimensions
  6
ByBlock
 62
    0
370
   -2
100
AcDbTrace
 10
98.18181818180001
 20
412.5
 30
0
 11
91.93181818180001
 21
411.4592883555679
 31
0
 12
91.93181818180001
 22
413.5407116444321
 32
0
 13
91.93181818180001
 23
413.5407116444321
 33
0
  0
MTEXT
  5
139
100
AcDbEntity
  8
Dimensions
  6
CONTINUOUS
 62
    0
370
   -2
100
AcDbMText
 10
80.3409090909
 20
417.1875
 30
0
 40
6.25
 41
19.79166666666783
 71
    5
 72
    1
  1
35,68
  7
STANDARD
210
0
220
0
230
1
 50
0
 73
    2
 44
1
  0
LINE
  5
13A
100
AcDbEntity
  8
Dimensions
  6
ByBlock
 62
    0
370
   -2
100
AcDbLine
 10
62.5
 20
389.0625
 11
62.49999999999999
 21
415.625
  0
LINE
  5
13B
100
AcDbEntity
  8
Dimensions
  6
ByBlock
 62
    0
370
   -2
100
AcDbLine
 10
98.18181818180001
 20
389.0625
 11
98.18181818180001
 21
415.625
  0
ENDBLK
  5
9C
330
9A
100
AcDbEntity
  8
0
100
AcDbBlockEnd
  0
BLOCK
  5
9E
330
9D
100
AcDbEntity
  8
0
100
AcDbBlockBegin
  2
*D26
 70
    1
 10
0
 20
0
  3
*D26
  1

  0
LINE
  5
13C
100
AcDbEntity
  8
Dimensions
  6
ByBlock
 62
    0
370
   -2
100
AcDbLine
 10
352
 20
410
 11
402.5
 21
410
  0
SOLID
  5
13D
100
AcDbEntity
  8
Dimensions
  6
ByBlock
 62
    0
370
   -2
100
AcDbTrace
 10
352
 20
410
 30
0
 11
358.25
 21
411.0407116444321
 31
0
 12
358.25
 22
408.9592883555679
 32
0
 13
358.25
 23
408.9592883555679
 33
0
  0
SOLID
  5
13E
100
AcDbEntity
  8
Dimensions
  6
ByBlock
 62
    0
370
   -2
100
AcDbTrace
 10
402.5
 20
410
 30
0
 11
396.25
 21
408.9592883555679
 31
0
 12
396.25
 22
411.0407116444321
 32
0
 13
396.25
 23
411.0407116444321
 33
0
  0
MTEXT
  5
13F
100
AcDbEntity
  8
Dimensions
  6
CONTINUOUS
 62
    0
370
   -2
100
AcDbMText
 10
377.25
 20
414.6875
 30
0
 40
6.25
 41
14.93055555555633
 71
    5
 72
    1
  1
50,5
  7
STANDARD
210
0
220
0
230
1
 50
0
 73
    2
 44
1
  0
LINE
  5
140
100
AcDbEntity
  8
Dimensions
  6
ByBlock
 62
    0
370
   -2
100
AcDbLine
 10
352
 20
396.5625
 11
352
 21
413.125
  0
LINE
  5
141
100
AcDbEntity
  8
Dimensions
  6
ByBlock
 62
    0
370
   -2
100
AcDbLine
 10
402.5
 20
396.5625
 11
402.5
 21
413.125
  0
ENDBLK
  5
9F
330
9D
100
AcDbEntity
  8
0
100
AcDbBlockEnd
  0
ENDSEC
  0
SECTION
  2
ENTITIES
  0
LINE
  5
142
100
AcDbEntity
  8
0
  6
ByLayer
 62
  256
370
   -1
100
AcDbLine
 10
0
 20
0
 11
0
 21
450
  0
LINE
  5
143
100
AcDbEntity
  8
0
  6
ByLayer
 62
  256
370
   -1
100
AcDbLine
 10
0
 20
450
 11
450
 21
450
  0
LINE
  5
144
100
AcDbEntity
  8
0
  6
ByLayer
 62
  256
370
   -1
100
AcDbLine
 10
450
 20
450
 11
450
 21
0
  0
LINE
  5
145
100
AcDbEntity
  8
0
  6
ByLayer
 62
  256
370
   -1
100
AcDbLine
 10
450
 20
0
 11
0
 21
0
  0
LINE
  5
146
100
AcDbEntity
  8
0
  6
ByLayer
 62
  256
370
   -1
100
AcDbLine
 10
15
 20
435
 11
15
 21
15
  0
LINE
  5
147
100
AcDbEntity
  8
0
  6
ByLayer
 62
  256
370
   -1
100
AcDbLine
 10
435
 20
435
 11
435
 21
15
  0
CIRCLE
  5
148
100
AcDbEntity
  8
0
  6
ByLayer
 62
  256
370
   -1
100
AcDbCircle
 10
55
 20
395
 40
5
  0
CIRCLE
  5
149
100
AcDbEntity
  8
0
  6
ByLayer
 62
  256
370
   -1
100
AcDbCircle
 10
225
 20
395
 40
5
  0
CIRCLE
  5
14A
100
AcDbEntity
  8
0
  6
ByLayer
 62
  256
370
   -1
100
AcDbCircle
 10
395
 20
395
 40
5
  0
CIRCLE
  5
14B
100
AcDbEntity
  8
0
  6
ByLayer
 62
  256
370
   -1
100
AcDbCircle
 10
55
 20
225
 40
5
  0
CIRCLE
  5
14C
100
AcDbEntity
  8
0
  6
ByLayer
 62
  256
370
   -1
100
AcDbCircle
 10
395
 20
225
 40
5
  0
CIRCLE
  5
14D
100
AcDbEntity
  8
0
  6
ByLayer
 62
  256
370
   -1
100
AcDbCircle
 10
55
 20
55
 40
5
  0
CIRCLE
  5
14E
100
AcDbEntity
  8
0
  6
ByLayer
 62
  256
370
   -1
100
AcDbCircle
 10
225
 20
55
 40
5
  0
CIRCLE
  5
14F
100
AcDbEntity
  8
0
  6
ByLayer
 62
  256
370
   -1
100
AcDbCircle
 10
395
 20
55
 40
5
  0
CIRCLE
  5
150
100
AcDbEntity
  8
LEDs
  6
ByLayer
 62
  256
370
   -1
100
AcDbCircle
 10
25
 20
425
 40
2.5
  0
CIRCLE
  5
151
100
AcDbEntity
  8
LEDs
  6
ByLayer
 62
  256
370
   -1
100
AcDbCircle
 10
425
 20
425
 40
2.5
  0
CIRCLE
  5
152
100
AcDbEntity
  8
LEDs
  6
ByLayer
 62
  256
370
   -1
100
AcDbCircle
 10
25
 20
25
 40
2.5
  0
CIRCLE
  5
153
100
AcDbEntity
  8
LEDs
  6
ByLayer
 62
  256
370
   -1
100
AcDbCircle
 10
425
 20
25
 40
2.5
  0
CIRCLE
  5
154
100
AcDbEntity
  8
LEDs
  6
ByLayer
 62
  256
370
   -1
100
AcDbCircle
 10
84.0909090909
 20
85.5
 40
2.5
  0
CIRCLE
  5
155
100
AcDbEntity
  8
LEDs
  6
ByLayer
 62
  256
370
   -1
100
AcDbCircle
 10
112.2727272727
 20
85.5
 40
2.5
  0
CIRCLE
  5
156
100
AcDbEntity
  8
LEDs
  6
ByLayer
 62
  256
370
   -1
100
AcDbCircle
 10
140.4545454545
 20
85.5
 40
2.5
  0
CIRCLE
  5
157
100
AcDbEntity
  8
LEDs
  6
ByLayer
 62
  256
370
   -1
100
AcDbCircle
 10
168.6363636363
 20
85.5
 40
2.5
  0
CIRCLE
  5
158
100
AcDbEntity
  8
LEDs
  6
ByLayer
 62
  256
370
   -1
100
AcDbCircle
 10
196.8181818181
 20
85.5
 40
2.5
  0
CIRCLE
  5
159
100
AcDbEntity
  8
LEDs
  6
ByLayer
 62
  256
370
   -1
100
AcDbCircle
 10
225
 20
85.5
 40
2.5
  0
CIRCLE
  5
15A
100
AcDbEntity
  8
LEDs
  6
ByLayer
 62
  256
370
   -1
100
AcDbCircle
 10
253.1818181817
 20
85.5
 40
2.5
  0
CIRCLE
  5
15B
100
AcDbEntity
  8
LEDs
  6
ByLayer
 62
  256
370
   -1
100
AcDbCircle
 10
281.3636363635
 20
85.5
 40
2.5
  0
CIRCLE
  5
15C
100
AcDbEntity
  8
LEDs
  6
ByLayer
 62
  256
370
   -1
100
AcDbCircle
 10
309.5454545453001
 20
85.5
 40
2.5
  0
CIRCLE
  5
15D
100
AcDbEntity
  8
LEDs
  6
ByLayer
 62
  256
370
   -1
100
AcDbCircle
 10
337.7272727270999
 20
85.5
 40
2.5
  0
CIRCLE
  5
15E
100
AcDbEntity
  8
LEDs
  6
ByLayer
 62
  256
370
   -1
100
AcDbCircle
 10
365.9090909089
 20
85.5
 40
2.5
  0
CIRCLE
  5
15F
100
AcDbEntity
  8
LEDs
  6
ByLayer
 62
  256
370
   -1
100
AcDbCircle
 10
365.9090909089
 20
116.5
 40
2.5
  0
CIRCLE
  5
160
100
AcDbEntity
  8
LEDs
  6
ByLayer
 62
  256
370
   -1
100
AcDbCircle
 10
337.7272727270999
 20
116.5
 40
2.5
  0
CIRCLE
  5
161
100
AcDbEntity
  8
LEDs
  6
ByLayer
 62
  256
370
   -1
100
AcDbCircle
 10
309.5454545453001
 20
116.5
 40
2.5
  0
CIRCLE
  5
162
100
AcDbEntity
  8
LEDs
  6
ByLayer
 62
  256
370
   -1
100
AcDbCircle
 10
281.3636363635
 20
116.5
 40
2.5
  0
CIRCLE
  5
163
100
AcDbEntity
  8
LEDs
  6
ByLayer
 62
  256
370
   -1
100
AcDbCircle
 10
253.1818181817
 20
116.5
 40
2.5
  0
CIRCLE
  5
164
100
AcDbEntity
  8
LEDs
  6
ByLayer
 62
  256
370
   -1
100
AcDbCircle
 10
225
 20
116.5
 40
2.5
  0
CIRCLE
  5
165
100
AcDbEntity
  8
LEDs
  6
ByLayer
 62
  256
370
   -1
100
AcDbCircle
 10
196.8181818181
 20
116.5
 40
2.5
  0
CIRCLE
  5
166
100
AcDbEntity
  8
LEDs
  6
ByLayer
 62
  256
370
   -1
100
AcDbCircle
 10
168.6363636363
 20
116.5
 40
2.5
  0
CIRCLE
  5
167
100
AcDbEntity
  8
LEDs
  6
ByLayer
 62
  256
370
   -1
100
AcDbCircle
 10
140.4545454545
 20
116.5
 40
2.5
  0
CIRCLE
  5
168
100
AcDbEntity
  8
LEDs
  6
ByLayer
 62
  256
370
   -1
100
AcDbCircle
 10
112.2727272727
 20
116.5
 40
2.5
  0
CIRCLE
  5
169
100
AcDbEntity
  8
LEDs
  6
ByLayer
 62
  256
370
   -1
100
AcDbCircle
 10
84.0909090909
 20
116.5
 40
2.5
  0
CIRCLE
  5
16A
100
AcDbEntity
  8
LEDs
  6
ByLayer
 62
  256
370
   -1
100
AcDbCircle
 10
84.0909090909
 20
147.5
 40
2.5
  0
CIRCLE
  5
16B
100
AcDbEntity
  8
LEDs
  6
ByLayer
 62
  256
370
   -1
100
AcDbCircle
 10
112.2727272727
 20
147.5
 40
2.5
  0
CIRCLE
  5
16C
100
AcDbEntity
  8
LEDs
  6
ByLayer
 62
  256
370
   -1
100
AcDbCircle
 10
140.4545454545
 20
147.5
 40
2.5
  0
CIRCLE
  5
16D
100
AcDbEntity
  8
LEDs
  6
ByLayer
 62
  256
370
   -1
100
AcDbCircle
 10
168.6363636363
 20
147.5
 40
2.5
  0
CIRCLE
  5
16E
100
AcDbEntity
  8
LEDs
  6
ByLayer
 62
  256
370
   -1
100
AcDbCircle
 10
196.8181818181
 20
147.5
 40
2.5
  0
CIRCLE
  5
16F
100
AcDbEntity
  8
LEDs
  6
ByLayer
 62
  256
370
   -1
100
AcDbCircle
 10
225
 20
147.5
 40
2.5
  0
CIRCLE
  5
170
100
AcDbEntity
  8
LEDs
  6
ByLayer
 62
  256
370
   -1
100
AcDbCircle
 10
253.1818181817
 20
147.5
 40
2.5
  0
CIRCLE
  5
171
100
AcDbEntity
  8
LEDs
  6
ByLayer
 62
  256
370
   -1
100
AcDbCircle
 10
281.3636363635
 20
147.5
 40
2.5
  0
CIRCLE
  5
172
100
AcDbEntity
  8
LEDs
  6
ByLayer
 62
  256
370
   -1
100
AcDbCircle
 10
309.5454545453001
 20
147.5
 40
2.5
  0
CIRCLE
  5
173
100
AcDbEntity
  8
LEDs
  6
ByLayer
 62
  256
370
   -1
100
AcDbCircle
 10
337.7272727270999
 20
147.5
 40
2.5
  0
CIRCLE
  5
174
100
AcDbEntity
  8
LEDs
  6
ByLayer
 62
  256
370
   -1
100
AcDbCircle
 10
365.9090909089
 20
147.5
 40
2.5
  0
CIRCLE
  5
175
100
AcDbEntity
  8
LEDs
  6
ByLayer
 62
  256
370
   -1
100
AcDbCircle
 10
84.0909090909
 20
178.5
 40
2.5
  0
CIRCLE
  5
176
100
AcDbEntity
  8
LEDs
  6
ByLayer
 62
  256
370
   -1
100
AcDbCircle
 10
112.2727272727
 20
178.5
 40
2.5
  0
CIRCLE
  5
177
100
AcDbEntity
  8
LEDs
  6
ByLayer
 62
  256
370
   -1
100
AcDbCircle
 10
140.4545454545
 20
178.5
 40
2.5
  0
CIRCLE
  5
178
100
AcDbEntity
  8
LEDs
  6
ByLayer
 62
  256
370
   -1
100
AcDbCircle
 10
168.6363636363
 20
178.5
 40
2.5
  0
CIRCLE
  5
179
100
AcDbEntity
  8
LEDs
  6
ByLayer
 62
  256
370
   -1
100
AcDbCircle
 10
196.8181818181
 20
178.5
 40
2.5
  0
CIRCLE
  5
17A
100
AcDbEntity
  8
LEDs
  6
ByLayer
 62
  256
370
   -1
100
AcDbCircle
 10
225
 20
178.5
 40
2.5
  0
CIRCLE
  5
17B
100
AcDbEntity
  8
LEDs
  6
ByLayer
 62
  256
370
   -1
100
AcDbCircle
 10
253.1818181817
 20
178.5
 40
2.5
  0
CIRCLE
  5
17C
100
AcDbEntity
  8
LEDs
  6
ByLayer
 62
  256
370
   -1
100
AcDbCircle
 10
281.3636363635
 20
178.5
 40
2.5
  0
CIRCLE
  5
17D
100
AcDbEntity
  8
LEDs
  6
ByLayer
 62
  256
370
   -1
100
AcDbCircle
 10
309.5454545453001
 20
178.5
 40
2.5
  0
CIRCLE
  5
17E
100
AcDbEntity
  8
LEDs
  6
ByLayer
 62
  256
370
   -1
100
AcDbCircle
 10
337.7272727270999
 20
178.5
 40
2.5
  0
CIRCLE
  5
17F
100
AcDbEntity
  8
LEDs
  6
ByLayer
 62
  256
370
   -1
100
AcDbCircle
 10
365.9090909089
 20
178.5
 40
2.5
  0
CIRCLE
  5
180
100
AcDbEntity
  8
LEDs
  6
ByLayer
 62
  256
370
   -1
100
AcDbCircle
 10
365.9090909089
 20
209.5
 40
2.5
  0
CIRCLE
  5
181
100
AcDbEntity
  8
LEDs
  6
ByLayer
 62
  256
370
   -1
100
AcDbCircle
 10
337.7272727270999
 20
209.5
 40
2.5
  0
CIRCLE
  5
182
100
AcDbEntity
  8
LEDs
  6
ByLayer
 62
  256
370
   -1
100
AcDbCircle
 10
309.5454545453001
 20
209.5
 40
2.5
  0
CIRCLE
  5
183
100
AcDbEntity
  8
LEDs
  6
ByLayer
 62
  256
370
   -1
100
AcDbCircle
 10
281.3636363635
 20
209.5
 40
2.5
  0
CIRCLE
  5
184
100
AcDbEntity
  8
LEDs
  6
ByLayer
 62
  256
370
   -1
100
AcDbCircle
 10
253.1818181817
 20
209.5
 40
2.5
  0
CIRCLE
  5
185
100
AcDbEntity
  8
LEDs
  6
ByLayer
 62
  256
370
   -1
100
AcDbCircle
 10
225
 20
209.5
 40
2.5
  0
CIRCLE
  5
186
100
AcDbEntity
  8
LEDs
  6
ByLayer
 62
  256
370
   -1
100
AcDbCircle
 10
196.8181818181
 20
209.5
 40
2.5
  0
CIRCLE
  5
187
100
AcDbEntity
  8
LEDs
  6
ByLayer
 62
  256
370
   -1
100
AcDbCircle
 10
168.6363636363
 20
209.5
 40
2.5
  0
CIRCLE
  5
188
100
AcDbEntity
  8
LEDs
  6
ByLayer
 62
  256
370
   -1
100
AcDbCircle
 10
140.4545454545
 20
209.5
 40
2.5
  0
CIRCLE
  5
189
100
AcDbEntity
  8
LEDs
  6
ByLayer
 62
  256
370
   -1
100
AcDbCircle
 10
112.2727272727
 20
209.5
 40
2.5
  0
CIRCLE
  5
18A
100
AcDbEntity
  8
LEDs
  6
ByLayer
 62
  256
370
   -1
100
AcDbCircle
 10
84.0909090909
 20
209.5
 40
2.5
  0
CIRCLE
  5
18B
100
AcDbEntity
  8
LEDs
  6
ByLayer
 62
  256
370
   -1
100
AcDbCircle
 10
84.0909090909
 20
240.5
 40
2.5
  0
CIRCLE
  5
18C
100
AcDbEntity
  8
LEDs
  6
ByLayer
 62
  256
370
   -1
100
AcDbCircle
 10
112.2727272727
 20
240.5
 40
2.5
  0
CIRCLE
  5
18D
100
AcDbEntity
  8
LEDs
  6
ByLayer
 62
  256
370
   -1
100
AcDbCircle
 10
140.4545454545
 20
240.5
 40
2.5
  0
CIRCLE
  5
18E
100
AcDbEntity
  8
LEDs
  6
ByLayer
 62
  256
370
   -1
100
AcDbCircle
 10
168.6363636363
 20
240.5
 40
2.5
  0
CIRCLE
  5
18F
100
AcDbEntity
  8
LEDs
  6
ByLayer
 62
  256
370
   -1
100
AcDbCircle
 10
196.8181818181
 20
240.5
 40
2.5
  0
CIRCLE
  5
190
100
AcDbEntity
  8
LEDs
  6
ByLayer
 62
  256
370
   -1
100
AcDbCircle
 10
225
 20
240.5
 40
2.5
  0
CIRCLE
  5
191
100
AcDbEntity
  8
LEDs
  6
ByLayer
 62
  256
370
   -1
100
AcDbCircle
 10
253.1818181817
 20
240.5
 40
2.5
  0
CIRCLE
  5
192
100
AcDbEntity
  8
LEDs
  6
ByLayer
 62
  256
370
   -1
100
AcDbCircle
 10
281.3636363635
 20
240.5
 40
2.5
  0
CIRCLE
  5
193
100
AcDbEntity
  8
LEDs
  6
ByLayer
 62
  256
370
   -1
100
AcDbCircle
 10
309.5454545453001
 20
240.5
 40
2.5
  0
CIRCLE
  5
194
100
AcDbEntity
  8
LEDs
  6
ByLayer
 62
  256
370
   -1
100
AcDbCircle
 10
337.7272727270999
 20
240.5
 40
2.5
  0
CIRCLE
  5
195
100
AcDbEntity
  8
LEDs
  6
ByLayer
 62
  256
370
   -1
100
AcDbCircle
 10
365.9090909089
 20
240.5
 40
2.5
  0
CIRCLE
  5
196
100
AcDbEntity
  8
LEDs
  6
ByLayer
 62
  256
370
   -1
100
AcDbCircle
 10
84.0909090909
 20
271.5
 40
2.5
  0
CIRCLE
  5
197
100
AcDbEntity
  8
LEDs
  6
ByLayer
 62
  256
370
   -1
100
AcDbCircle
 10
112.2727272727
 20
271.5
 40
2.5
  0
CIRCLE
  5
198
100
AcDbEntity
  8
LEDs
  6
ByLayer
 62
  256
370
   -1
100
AcDbCircle
 10
140.4545454545
 20
271.5
 40
2.5
  0
CIRCLE
  5
199
100
AcDbEntity
  8
LEDs
  6
ByLayer
 62
  256
370
   -1
100
AcDbCircle
 10
168.6363636363
 20
271.5
 40
2.5
  0
CIRCLE
  5
19A
100
AcDbEntity
  8
LEDs
  6
ByLayer
 62
  256
370
   -1
100
AcDbCircle
 10
196.8181818181
 20
271.5
 40
2.5
  0
CIRCLE
  5
19B
100
AcDbEntity
  8
LEDs
  6
ByLayer
 62
  256
370
   -1
100
AcDbCircle
 10
225
 20
271.5
 40
2.5
  0
CIRCLE
  5
19C
100
AcDbEntity
  8
LEDs
  6
ByLayer
 62
  256
370
   -1
100
AcDbCircle
 10
253.1818181817
 20
271.5
 40
2.5
  0
CIRCLE
  5
19D
100
AcDbEntity
  8
LEDs
  6
ByLayer
 62
  256
370
   -1
100
AcDbCircle
 10
281.3636363635
 20
271.5
 40
2.5
  0
CIRCLE
  5
19E
100
AcDbEntity
  8
LEDs
  6
ByLayer
 62
  256
370
   -1
100
AcDbCircle
 10
309.5454545453001
 20
271.5
 40
2.5
  0
CIRCLE
  5
19F
100
AcDbEntity
  8
LEDs
  6
ByLayer
 62
  256
370
   -1
100
AcDbCircle
 10
337.7272727270999
 20
271.5
 40
2.5
  0
CIRCLE
  5
1A0
100
AcDbEntity
  8
LEDs
  6
ByLayer
 62
  256
370
   -1
100
AcDbCircle
 10
365.9090909089
 20
271.5
 40
2.5
  0
CIRCLE
  5
1A1
100
AcDbEntity
  8
LEDs
  6
ByLayer
 62
  256
370
   -1
100
AcDbCircle
 10
365.9090909089
 20
302.5
 40
2.5
  0
CIRCLE
  5
1A2
100
AcDbEntity
  8
LEDs
  6
ByLayer
 62
  256
370
   -1
100
AcDbCircle
 10
337.7272727270999
 20
302.5
 40
2.5
  0
CIRCLE
  5
1A3
100
AcDbEntity
  8
LEDs
  6
ByLayer
 62
  256
370
   -1
100
AcDbCircle
 10
309.5454545453001
 20
302.5
 40
2.5
  0
CIRCLE
  5
1A4
100
AcDbEntity
  8
LEDs
  6
ByLayer
 62
  256
370
   -1
100
AcDbCircle
 10
281.3636363635
 20
302.5
 40
2.5
  0
CIRCLE
  5
1A5
100
AcDbEntity
  8
LEDs
  6
ByLayer
 62
  256
370
   -1
100
AcDbCircle
 10
253.1818181817
 20
302.5
 40
2.5
  0
CIRCLE
  5
1A6
100
AcDbEntity
  8
LEDs
  6
ByLayer
 62
  256
370
   -1
100
AcDbCircle
 10
225
 20
302.5
 40
2.5
  0
CIRCLE
  5
1A7
100
AcDbEntity
  8
LEDs
  6
ByLayer
 62
  256
370
   -1
100
AcDbCircle
 10
196.8181818181
 20
302.5
 40
2.5
  0
CIRCLE
  5
1A8
100
AcDbEntity
  8
LEDs
  6
ByLayer
 62
  256
370
   -1
100
AcDbCircle
 10
168.6363636363
 20
302.5
 40
2.5
  0
CIRCLE
  5
1A9
100
AcDbEntity
  8
LEDs
  6
ByLayer
 62
  256
370
   -1
100
AcDbCircle
 10
140.4545454545
 20
302.5
 40
2.5
  0
CIRCLE
  5
1AA
100
AcDbEntity
  8
LEDs
  6
ByLayer
 62
  256
370
   -1
100
AcDbCircle
 10
112.2727272727
 20
302.5
 40
2.5
  0
CIRCLE
  5
1AB
100
AcDbEntity
  8
LEDs
  6
ByLayer
 62
  256
370
   -1
100
AcDbCircle
 10
84.0909090909
 20
302.5
 40
2.5
  0
CIRCLE
  5
1AC
100
AcDbEntity
  8
LEDs
  6
ByLayer
 62
  256
370
   -1
100
AcDbCircle
 10
84.0909090909
 20
333.5
 40
2.5
  0
CIRCLE
  5
1AD
100
AcDbEntity
  8
LEDs
  6
ByLayer
 62
  256
370
   -1
100
AcDbCircle
 10
112.2727272727
 20
333.5
 40
2.5
  0
CIRCLE
  5
1AE
100
AcDbEntity
  8
LEDs
  6
ByLayer
 62
  256
370
   -1
100
AcDbCircle
 10
140.4545454545
 20
333.5
 40
2.5
  0
CIRCLE
  5
1AF
100
AcDbEntity
  8
LEDs
  6
ByLayer
 62
  256
370
   -1
100
AcDbCircle
 10
168.6363636363
 20
333.5
 40
2.5
  0
CIRCLE
  5
1B0
100
AcDbEntity
  8
LEDs
  6
ByLayer
 62
  256
370
   -1
100
AcDbCircle
 10
196.8181818181
 20
333.5
 40
2.5
  0
CIRCLE
  5
1B1
100
AcDbEntity
  8
LEDs
  6
ByLayer
 62
  256
370
   -1
100
AcDbCircle
 10
225
 20
333.5
 40
2.5
  0
CIRCLE
  5
1B2
100
AcDbEntity
  8
LEDs
  6
ByLayer
 62
  256
370
   -1
100
AcDbCircle
 10
253.1818181817
 20
333.5
 40
2.5
  0
CIRCLE
  5
1B3
100
AcDbEntity
  8
LEDs
  6
ByLayer
 62
  256
370
   -1
100
AcDbCircle
 10
281.3636363635
 20
333.5
 40
2.5
  0
CIRCLE
  5
1B4
100
AcDbEntity
  8
LEDs
  6
ByLayer
 62
  256
370
   -1
100
AcDbCircle
 10
309.5454545453001
 20
333.5
 40
2.5
  0
CIRCLE
  5
1B5
100
AcDbEntity
  8
LEDs
  6
ByLayer
 62
  256
370
   -1
100
AcDbCircle
 10
337.7272727270999
 20
333.5
 40
2.5
  0
CIRCLE
  5
1B6
100
AcDbEntity
  8
LEDs
  6
ByLayer
 62
  256
370
   -1
100
AcDbCircle
 10
365.9090909089
 20
333.5
 40
2.5
  0
CIRCLE
  5
1B7
100
AcDbEntity
  8
LEDs
  6
ByLayer
 62
  256
370
   -1
100
AcDbCircle
 10
365.9090909089
 20
364.5
 40
2.5
  0
CIRCLE
  5
1B8
100
AcDbEntity
  8
LEDs
  6
ByLayer
 62
  256
370
   -1
100
AcDbCircle
 10
337.7272727270999
 20
364.5
 40
2.5
  0
CIRCLE
  5
1B9
100
AcDbEntity
  8
LEDs
  6
ByLayer
 62
  256
370
   -1
100
AcDbCircle
 10
309.5454545453001
 20
364.5
 40
2.5
  0
CIRCLE
  5
1BA
100
AcDbEntity
  8
LEDs
  6
ByLayer
 62
  256
370
   -1
100
AcDbCircle
 10
281.3636363635
 20
364.5
 40
2.5
  0
CIRCLE
  5
1BB
100
AcDbEntity
  8
LEDs
  6
ByLayer
 62
  256
370
   -1
100
AcDbCircle
 10
253.1818181817
 20
364.5
 40
2.5
  0
CIRCLE
  5
1BC
100
AcDbEntity
  8
LEDs
  6
ByLayer
 62
  256
370
   -1
100
AcDbCircle
 10
225
 20
364.5
 40
2.5
  0
CIRCLE
  5
1BD
100
AcDbEntity
  8
LEDs
  6
ByLayer
 62
  256
370
   -1
100
AcDbCircle
 10
196.8181818181
 20
364.5
 40
2.5
  0
CIRCLE
  5
1BE
100
AcDbEntity
  8
LEDs
  6
ByLayer
 62
  256
370
   -1
100
AcDbCircle
 10
168.6363636363
 20
364.5
 40
2.5
  0
CIRCLE
  5
1BF
100
AcDbEntity
  8
LEDs
  6
ByLayer
 62
  256
370
   -1
100
AcDbCircle
 10
140.4545454545
 20
364.5
 40
2.5
  0
CIRCLE
  5
1C0
100
AcDbEntity
  8
LEDs
  6
ByLayer
 62
  256
370
   -1
100
AcDbCircle
 10
112.2727272727
 20
364.5
 40
2.5
  0
CIRCLE
  5
1C1
100
AcDbEntity
  8
LEDs
  6
ByLayer
 62
  256
370
   -1
100
AcDbCircle
 10
84.0909090909
 20
364.5
 40
2.5
  0
LINE
  5
1C2
100
AcDbEntity
  8
0
  6
ByLayer
 62
  256
370
   -1
100
AcDbLine
 10
402.5
 20
62.5
 11
402.5
 21
47.5
  0
LINE
  5
1C3
100
AcDbEntity
  8
0
  6
ByLayer
 62
  256
370
   -1
100
AcDbLine
 10
402.5
 20
47.5
 11
47.5
 21
47.5
  0
LINE
  5
1C4
100
AcDbEntity
  8
0
  6
ByLayer
 62
  256
370
   -1
100
AcDbLine
 10
47.5
 20
47.5
 11
47.5
 21
62.5
  0
LINE
  5
1C5
100
AcDbEntity
  8
0
  6
ByLayer
 62
  256
370
   -1
100
AcDbLine
 10
47.5
 20
62.5
 11
402.5
 21
62.5
  0
LINE
  5
1C6
100
AcDbEntity
  8
0
  6
ByLayer
 62
  256
370
   -1
100
AcDbLine
 10
47.5
 20
402.5
 11
402.5
 21
402.5
  0
LINE
  5
1C7
100
AcDbEntity
  8
0
  6
ByLayer
 62
  256
370
   -1
100
AcDbLine
 10
402.5
 20
402.5
 11
402.5
 21
387.5
  0
LINE
  5
1C8
100
AcDbEntity
  8
0
  6
ByLayer
 62
  256
370
   -1
100
AcDbLine
 10
402.5
 20
387.5
 11
47.5
 21
387.5
  0
LINE
  5
1C9
100
AcDbEntity
  8
0
  6
ByLayer
 62
  256
370
   -1
100
AcDbLine
 10
47.5
 20
387.5
 11
47.5
 21
402.5
  0
DIMENSION
  5
1CA
100
AcDbEntity
  8
Dimensions
  6
ByLayer
 62
  256
370
   -1
100
AcDbDimension
  2
*D1
 10
450
 20
-20
 30
0
 11
437.5
 21
-15.3125
 31
0
 70
   32
 71
    5
 72
    0
  3
Standard
 53
0
210
0
220
0
230
1
100
AcDbAlignedDimension
 13
425
 23
25
 33
0
 14
450
 24
25
 34
0
100
AcDbRotatedDimension
  0
DIMENSION
  5
1CB
100
AcDbEntity
  8
Dimensions
  6
ByLayer
 62
  256
370
   -1
100
AcDbDimension
  2
*D2
 10
450
 20
-30
 30
0
 11
407.95454545445
 21
-25.3125
 31
0
 70
   32
 71
    5
 72
    0
  3
Standard
 53
0
210
0
220
0
230
1
100
AcDbAlignedDimension
 13
365.9090909089
 23
85.5
 33
0
 14
450
 24
85.5
 34
0
100
AcDbRotatedDimension
  0
DIMENSION
  5
1CC
100
AcDbEntity
  8
Dimensions
  6
ByLayer
 62
  256
370
   -1
100
AcDbDimension
  2
*D3
 10
470
 20
-5.510728592200698e-015
 30
0
 11
465.3125
 21
12.5
 31
0
 70
   32
 71
    5
 72
    0
  3
Standard
 53
0
210
0
220
0
230
1
100
AcDbAlignedDimension
 13
425
 23
25
 33
0
 14
425
 24
-0
 34
0
 50
90
100
AcDbRotatedDimension
  0
DIMENSION
  5
1CD
100
AcDbEntity
  8
Dimensions
  6
ByLayer
 62
  256
370
   -1
100
AcDbDimension
  2
*D4
 10
480
 20
-1.397164521863323e-014
 30
0
 11
475.3125
 21
42.75000000000001
 31
0
 70
   32
 71
    5
 72
    0
  3
Standard
 53
0
210
0
220
0
230
1
100
AcDbAlignedDimension
 13
365.9090909089
 23
85.5
 33
0
 14
365.9090909089
 24
0
 34
0
 50
90
100
AcDbRotatedDimension
  0
LINE
  5
1CE
100
AcDbEntity
  8
0
  6
ByLayer
 62
  256
370
   -1
100
AcDbLine
 10
410
 20
435
 11
410
 21
410
  0
LINE
  5
1CF
100
AcDbEntity
  8
0
  6
ByLayer
 62
  256
370
   -1
100
AcDbLine
 10
415
 20
435
 11
415
 21
415
  0
LINE
  5
1D0
100
AcDbEntity
  8
0
  6
ByLayer
 62
  256
370
   -1
100
AcDbLine
 10
410
 20
415
 11
435
 21
415
  0
LINE
  5
1D1
100
AcDbEntity
  8
0
  6
ByLayer
 62
  256
370
   -1
100
AcDbLine
 10
410
 20
410
 11
435
 21
410
  0
LINE
  5
1D2
100
AcDbEntity
  8
0
  6
ByLayer
 62
  256
370
   -1
100
AcDbLine
 10
47.5
 20
387.5
 11
47.5
 21
62.5
  0
LINE
  5
1D3
100
AcDbEntity
  8
0
  6
ByLayer
 62
  256
370
   -1
100
AcDbLine
 10
62.5
 20
387.5
 11
62.5
 21
62.49999999999999
  0
LINE
  5
1D4
100
AcDbEntity
  8
0
  6
ByLayer
 62
  256
370
   -1
100
AcDbLine
 10
402.5
 20
387.5
 11
402.5
 21
62.5
  0
LINE
  5
1D5
100
AcDbEntity
  8
0
  6
ByLayer
 62
  256
370
   -1
100
AcDbLine
 10
387.5
 20
387.5
 11
387.5
 21
62.50000000000001
  0
DIMENSION
  5
1D6
100
AcDbEntity
  8
Dimensions
  6
ByLayer
 62
  256
370
   -1
100
AcDbDimension
  2
*D5
 10
-4.592273826833915e-015
 20
-20
 30
0
 11
27.5
 21
-15.3125
 31
0
 70
   32
 71
    5
 72
    0
  3
Standard
 53
0
210
0
220
0
230
1
100
AcDbAlignedDimension
 13
55
 23
55
 33
0
 14
0
 24
55
 34
0
100
AcDbRotatedDimension
  0
DIMENSION
  5
1D7
100
AcDbEntity
  8
Dimensions
  6
ByLayer
 62
  256
370
   -1
100
AcDbDimension
  2
*D6
 10
-5.204577003745103e-015
 20
-30
 30
0
 11
112.5
 21
-25.3125
 31
0
 70
   32
 71
    5
 72
    0
  3
Standard
 53
0
210
0
220
0
230
1
100
AcDbAlignedDimension
 13
225
 23
55
 33
0
 14
0
 24
55
 34
0
100
AcDbRotatedDimension
  0
DIMENSION
  5
1D8
100
AcDbEntity
  8
Dimensions
  6
ByLayer
 62
  256
370
   -1
100
AcDbDimension
  2
*D7
 10
402.5
 20
460
 30
0
 11
225
 21
464.6875
 31
0
 70
   32
 71
    5
 72
    0
  3
Standard
 53
0
210
0
220
0
230
1
100
AcDbAlignedDimension
 13
47.5
 23
402.5
 33
0
 14
402.5
 24
402.5
 34
0
100
AcDbRotatedDimension
  0
DIMENSION
  5
1D9
100
AcDbEntity
  8
Dimensions
  6
ByLayer
 62
  256
370
   -1
100
AcDbDimension
  2
*D8
 10
450
 20
480
 30
0
 11
225
 21
484.6875
 31
0
 70
   32
 71
    5
 72
    0
  3
Standard
 53
0
210
0
220
0
230
1
100
AcDbAlignedDimension
 13
0
 23
450
 33
0
 14
450
 24
450
 34
0
100
AcDbRotatedDimension
  0
DIMENSION
  5
1DA
100
AcDbEntity
  8
Dimensions
  6
ByLayer
 62
  256
370
   -1
100
AcDbDimension
  2
*D9
 10
435
 20
460
 30
0
 11
422.5
 21
464.6875
 31
0
 70
   32
 71
    5
 72
    0
  3
Standard
 53
0
210
0
220
0
230
1
100
AcDbAlignedDimension
 13
410
 23
415
 33
0
 14
435
 24
415
 34
0
100
AcDbRotatedDimension
  0
DIMENSION
  5
1DB
100
AcDbEntity
  8
Dimensions
  6
ByLayer
 62
  256
370
   -1
100
AcDbDimension
  2
*D10
 10
-10
 20
387.5
 30
0
 11
-14.68750000000001
 21
225
 31
0
 70
   32
 71
    5
 72
    0
  3
Standard
 53
0
210
0
220
0
230
1
100
AcDbAlignedDimension
 13
47.5
 23
62.5
 33
0
 14
47.5
 24
387.5
 34
0
 50
90
100
AcDbRotatedDimension
  0
DIMENSION
  5
1DC
100
AcDbEntity
  8
Dimensions
  6
ByLayer
 62
  256
370
   -1
100
AcDbDimension
  2
*D11
 10
3.520743267239335e-015
 20
460
 30
0
 11
23.75
 21
464.6875
 31
0
 70
   32
 71
    5
 72
    0
  3
Standard
 53
0
210
0
220
0
230
1
100
AcDbAlignedDimension
 13
47.5
 23
402.5
 33
0
 14
0
 24
402.5
 34
0
100
AcDbRotatedDimension
  0
DIMENSION
  5
1DD
100
AcDbEntity
  8
Dimensions
  6
ByLayer
 62
  256
370
   -1
100
AcDbDimension
  2
*D12
 10
-10.00000000000001
 20
450
 30
0
 11
-14.68750000000001
 21
426.25
 31
0
 70
   32
 71
    5
 72
    0
  3
Standard
 53
0
210
0
220
0
230
1
100
AcDbAlignedDimension
 13
47.82193029137293
 23
402.5
 33
0
 14
47.82193029137293
 24
450
 34
0
 50
90
100
AcDbRotatedDimension
  0
DIMENSION
  5
1DE
100
AcDbEntity
  8
Dimensions
  6
ByLayer
 62
  256
370
   -1
100
AcDbDimension
  2
*D13
 10
47.5
 20
30
 30
0
 11
51.25
 21
34.6875
 31
0
 70
   32
 71
    5
 72
    0
  3
Standard
 53
0
210
0
220
0
230
1
100
AcDbAlignedDimension
 13
55
 23
55
 33
0
 14
47.5
 24
55
 34
0
100
AcDbRotatedDimension
  0
DIMENSION
  5
1DF
100
AcDbEntity
  8
Dimensions
  6
ByLayer
 62
  256
370
   -1
100
AcDbDimension
  2
*D14
 10
47.5
 20
30
 30
0
 11
136.25
 21
34.6875
 31
0
 70
   32
 71
    5
 72
    0
  3
Standard
 53
0
210
0
220
0
230
1
100
AcDbAlignedDimension
 13
225
 23
55
 33
0
 14
47.5
 24
55
 34
0
100
AcDbRotatedDimension
  0
DIMENSION
  5
1E0
100
AcDbEntity
  8
Dimensions
  6
ByLayer
 62
  256
370
   -1
100
AcDbDimension
  2
*D15
 10
-10
 20
7.959941299845452e-015
 30
0
 11
-14.6875
 21
27.5
 31
0
 70
   32
 71
    5
 72
    0
  3
Standard
 53
0
210
0
220
0
230
1
100
AcDbAlignedDimension
 13
55
 23
55
 33
0
 14
55
 24
0
 34
0
 50
90
100
AcDbRotatedDimension
  0
DIMENSION
  5
1E1
100
AcDbEntity
  8
Dimensions
  6
ByLayer
 62
  256
370
   -1
100
AcDbDimension
  2
*D16
 10
30
 20
225
 30
0
 11
25.31249999999999
 21
143.75
 31
0
 70
   32
 71
    5
 72
    0
  3
Standard
 53
0
210
0
220
0
230
1
100
AcDbAlignedDimension
 13
55
 23
62.5
 33
0
 14
55
 24
225
 34
0
 50
90
100
AcDbRotatedDimension
  0
DIMENSION
  5
1E2
100
AcDbEntity
  8
Dimensions
  6
ByLayer
 62
  256
370
   -1
100
AcDbDimension
  2
*D17
 10
420
 20
85.49999999999999
 30
0
 11
415.3125
 21
101
 31
0
 70
   32
 71
    5
 72
    0
  3
Standard
 53
0
210
0
220
0
230
1
100
AcDbAlignedDimension
 13
365.9090909089
 23
116.5
 33
0
 14
365.9090909089
 24
85.5
 34
0
 50
90
100
AcDbRotatedDimension
  0
DIMENSION
  5
1E3
100
AcDbEntity
  8
Dimensions
  6
ByLayer
 62
  256
370
   -1
100
AcDbDimension
  2
*D18
 10
365.9090909089
 20
30
 30
0
 11
351.818181818
 21
34.6875
 31
0
 70
   32
 71
    5
 72
    0
  3
Standard
 53
0
210
0
220
0
230
1
100
AcDbAlignedDimension
 13
337.7272727270999
 23
85.5
 33
0
 14
365.9090909089
 24
85.5
 34
0
100
AcDbRotatedDimension
  0
DIMENSION
  5
1E4
100
AcDbEntity
  8
Dimensions
  6
ByLayer
 62
  256
370
   -1
100
AcDbDimension
  2
*D19
 10
40
 20
349
 30
0
 11
35.3125
 21
368.25
 31
0
 70
   32
 71
    5
 72
    0
  3
Standard
 53
0
210
0
220
0
230
1
100
AcDbAlignedDimension
 13
62.5
 23
387.5
 33
0
 14
62.5
 24
349
 34
0
 50
90
100
AcDbRotatedDimension
  0
DIMENSION
  5
1E5
100
AcDbEntity
  8
Dimensions
  6
ByLayer
 62
  256
370
   -1
100
AcDbDimension
  2
*D20
 10
40
 20
318
 30
0
 11
35.3125
 21
333.5
 31
0
 70
   32
 71
    5
 72
    0
  3
Standard
 53
0
210
0
220
0
230
1
100
AcDbAlignedDimension
 13
62.5
 23
349
 33
0
 14
62.5
 24
318
 34
0
 50
90
100
AcDbRotatedDimension
  0
DIMENSION
  5
1E6
100
AcDbEntity
  8
Dimensions
  6
ByLayer
 62
  256
370
   -1
100
AcDbDimension
  2
*D21
 10
98.18181818180001
 20
412.5
 30
0
 11
80.3409090909
 21
417.1875
 31
0
 70
   32
 71
    5
 72
    0
  3
Standard
 53
0
210
0
220
0
230
1
100
AcDbAlignedDimension
 13
62.5
 23
387.5
 33
0
 14
98.18181818180001
 24
387.5
 34
0
100
AcDbRotatedDimension
  0
DIMENSION
  5
1E7
100
AcDbEntity
  8
Dimensions
  6
ByLayer
 62
  256
370
   -1
100
AcDbDimension
  2
*D22
 10
126.3636363636
 20
412.5
 30
0
 11
112.2727272727
 21
417.1875
 31
0
 70
   32
 71
    5
 72
    0
  3
Standard
 53
0
210
0
220
0
230
1
100
AcDbAlignedDimension
 13
98.18181818180001
 23
387.5
 33
0
 14
126.3636363636
 24
387.5
 34
0
100
AcDbRotatedDimension
  0
LINE
  5
1E8
100
AcDbEntity
  8
0
  6
ByLayer
 62
  256
370
   -1
100
AcDbLine
 10
382.5
 20
387.5
 11
382.5
 21
62.50000000000001
  0
LINE
  5
1E9
100
AcDbEntity
  8
0
  6
ByLayer
 62
  256
370
   -1
100
AcDbLine
 10
67.5
 20
387.5
 11
67.5
 21
62.49999999999999
  0
LINE
  5
1EA
100
AcDbEntity
  8
0
  6
ByLayer
 62
  256
370
   -1
100
AcDbLine
 10
382.5
 20
382.5
 11
67.5
 21
382.5
  0
LINE
  5
1EB
100
AcDbEntity
  8
0
  6
ByLayer
 62
  256
370
   -1
100
AcDbLine
 10
67.5
 20
67.5
 11
382.5
 21
67.5
  0
LINE
  5
1EC
100
AcDbEntity
  8
0
  6
ByLayer
 62
  256
370
   -1
100
AcDbLine
 10
95.68181818180001
 20
67.5
 11
95.68181818180001
 21
382.5
  0
LINE
  5
1ED
100
AcDbEntity
  8
0
  6
ByLayer
 62
  256
370
   -1
100
AcDbLine
 10
100.6818181818
 20
67.5
 11
100.6818181818
 21
382.5
  0
LINE
  5
1EE
100
AcDbEntity
  8
0
  6
ByLayer
 62
  256
370
   -1
100
AcDbLine
 10
123.8636363636
 20
67.5
 11
123.8636363636
 21
382.5
  0
LINE
  5
1EF
100
AcDbEntity
  8
0
  6
ByLayer
 62
  256
370
   -1
100
AcDbLine
 10
128.8636363636
 20
67.5
 11
128.8636363636
 21
382.5
  0
LINE
  5
1F0
100
AcDbEntity
  8
0
  6
ByLayer
 62
  256
370
   -1
100
AcDbLine
 10
152.0454545454
 20
67.5
 11
152.0454545454
 21
382.5
  0
LINE
  5
1F1
100
AcDbEntity
  8
0
  6
ByLayer
 62
  256
370
   -1
100
AcDbLine
 10
157.0454545454
 20
67.5
 11
157.0454545454
 21
382.5
  0
LINE
  5
1F2
100
AcDbEntity
  8
0
  6
ByLayer
 62
  256
370
   -1
100
AcDbLine
 10
180.2272727272
 20
67.5
 11
180.2272727272
 21
382.5
  0
LINE
  5
1F3
100
AcDbEntity
  8
0
  6
ByLayer
 62
  256
370
   -1
100
AcDbLine
 10
185.2272727272
 20
67.5
 11
185.2272727272
 21
382.5
  0
LINE
  5
1F4
100
AcDbEntity
  8
0
  6
ByLayer
 62
  256
370
   -1
100
AcDbLine
 10
208.409090909
 20
67.5
 11
208.409090909
 21
382.5
  0
LINE
  5
1F5
100
AcDbEntity
  8
0
  6
ByLayer
 62
  256
370
   -1
100
AcDbLine
 10
213.409090909
 20
67.5
 11
213.409090909
 21
382.5
  0
LINE
  5
1F6
100
AcDbEntity
  8
0
  6
ByLayer
 62
  256
370
   -1
100
AcDbLine
 10
236.5909090908
 20
67.5
 11
236.5909090908
 21
382.5
  0
LINE
  5
1F7
100
AcDbEntity
  8
0
  6
ByLayer
 62
  256
370
   -1
100
AcDbLine
 10
241.5909090908
 20
67.5
 11
241.5909090908
 21
382.5
  0
LINE
  5
1F8
100
AcDbEntity
  8
0
  6
ByLayer
 62
  256
370
   -1
100
AcDbLine
 10
264.7727272726
 20
67.5
 11
264.7727272726
 21
382.5
  0
LINE
  5
1F9
100
AcDbEntity
  8
0
  6
ByLayer
 62
  256
370
   -1
100
AcDbLine
 10
269.7727272726
 20
67.5
 11
269.7727272726
 21
382.5
  0
LINE
  5
1FA
100
AcDbEntity
  8
0
  6
ByLayer
 62
  256
370
   -1
100
AcDbLine
 10
292.9545454544
 20
67.5
 11
292.9545454544
 21
382.5
  0
LINE
  5
1FB
100
AcDbEntity
  8
0
  6
ByLayer
 62
  256
370
   -1
100
AcDbLine
 10
297.9545454544
 20
67.5
 11
297.9545454544
 21
382.5
  0
LINE
  5
1FC
100
AcDbEntity
  8
0
  6
ByLayer
 62
  256
370
   -1
100
AcDbLine
 10
321.1363636362
 20
67.5
 11
321.1363636362
 21
382.5
  0
LINE
  5
1FD
100
AcDbEntity
  8
0
  6
ByLayer
 62
  256
370
   -1
100
AcDbLine
 10
326.1363636362
 20
67.5
 11
326.1363636362
 21
382.5
  0
LINE
  5
1FE
100
AcDbEntity
  8
0
  6
ByLayer
 62
  256
370
   -1
100
AcDbLine
 10
349.3181818179999
 20
67.5
 11
349.3181818179999
 21
382.5
  0
LINE
  5
1FF
100
AcDbEntity
  8
0
  6
ByLayer
 62
  256
370
   -1
100
AcDbLine
 10
354.3181818179999
 20
67.5
 11
354.3181818179999
 21
382.5
  0
LINE
  5
200
100
AcDbEntity
  8
0
  6
ByLayer
 62
  256
370
   -1
100
AcDbLine
 10
67.5
 20
351.5
 11
382.5
 21
351.5
  0
LINE
  5
201
100
AcDbEntity
  8
0
  6
ByLayer
 62
  256
370
   -1
100
AcDbLine
 10
67.5
 20
346.5
 11
382.5
 21
346.5
  0
LINE
  5
202
100
AcDbEntity
  8
0
  6
ByLayer
 62
  256
370
   -1
100
AcDbLine
 10
67.5
 20
320.5
 11
382.5
 21
320.5
  0
LINE
  5
203
100
AcDbEntity
  8
0
  6
ByLayer
 62
  256
370
   -1
100
AcDbLine
 10
67.5
 20
315.5
 11
382.5
 21
315.5
  0
LINE
  5
204
100
AcDbEntity
  8
0
  6
ByLayer
 62
  256
370
   -1
100
AcDbLine
 10
67.5
 20
289.5
 11
382.5
 21
289.5
  0
LINE
  5
205
100
AcDbEntity
  8
0
  6
ByLayer
 62
  256
370
   -1
100
AcDbLine
 10
67.5
 20
284.5
 11
382.5
 21
284.5
  0
LINE
  5
206
100
AcDbEntity
  8
0
  6
ByLayer
 62
  256
370
   -1
100
AcDbLine
 10
67.5
 20
258.5
 11
382.5
 21
258.5
  0
LINE
  5
207
100
AcDbEntity
  8
0
  6
ByLayer
 62
  256
370
   -1
100
AcDbLine
 10
67.5
 20
253.5
 11
382.5
 21
253.5
  0
LINE
  5
208
100
AcDbEntity
  8
0
  6
ByLayer
 62
  256
370
   -1
100
AcDbLine
 10
67.5
 20
227.5
 11
382.5
 21
227.5
  0
LINE
  5
209
100
AcDbEntity
  8
0
  6
ByLayer
 62
  256
370
   -1
100
AcDbLine
 10
67.5
 20
222.5
 11
382.5
 21
222.5
  0
LINE
  5
20A
100
AcDbEntity
  8
0
  6
ByLayer
 62
  256
370
   -1
100
AcDbLine
 10
67.5
 20
196.5
 11
382.5
 21
196.5
  0
LINE
  5
20B
100
AcDbEntity
  8
0
  6
ByLayer
 62
  256
370
   -1
100
AcDbLine
 10
67.5
 20
191.5
 11
382.5
 21
191.5
  0
LINE
  5
20C
100
AcDbEntity
  8
0
  6
ByLayer
 62
  256
370
   -1
100
AcDbLine
 10
67.5
 20
165.5
 11
382.5
 21
165.5
  0
LINE
  5
20D
100
AcDbEntity
  8
0
  6
ByLayer
 62
  256
370
   -1
100
AcDbLine
 10
67.5
 20
160.5
 11
382.5
 21
160.5
  0
LINE
  5
20E
100
AcDbEntity
  8
0
  6
ByLayer
 62
  256
370
   -1
100
AcDbLine
 10
67.5
 20
134.5
 11
382.5
 21
134.5
  0
LINE
  5
20F
100
AcDbEntity
  8
0
  6
ByLayer
 62
  256
370
   -1
100
AcDbLine
 10
67.5
 20
129.5
 11
382.5
 21
129.5
  0
LINE
  5
210
100
AcDbEntity
  8
0
  6
ByLayer
 62
  256
370
   -1
100
AcDbLine
 10
67.5
 20
103.5
 11
382.5
 21
103.5
  0
LINE
  5
211
100
AcDbEntity
  8
0
  6
ByLayer
 62
  256
370
   -1
100
AcDbLine
 10
67.5
 20
98.5
 11
382.5
 21
98.5
  0
DIMENSION
  5
212
100
AcDbEntity
  8
Dimensions
  6
ByLayer
 62
  256
370
   -1
100
AcDbDimension
  2
*D23
 10
420
 20
351.5
 30
0
 11
415.3125
 21
367
 31
0
 70
   32
 71
    5
  3
Standard
 53
0
210
0
220
0
230
1
100
AcDbAlignedDimension
 13
382.5
 23
382.5
 33
0
 14
382.5
 24
351.5
 34
0
 50
90
100
AcDbRotatedDimension
  0
DIMENSION
  5
213
100
AcDbEntity
  8
Dimensions
  6
ByLayer
 62
  256
370
   -1
100
AcDbDimension
  2
*D24
 10
420
 20
320.5
 30
0
 11
415.3125
 21
333.5
 31
0
 70
   32
 71
    5
  3
Standard
 53
0
210
0
220
0
230
1
100
AcDbAlignedDimension
 13
382.5
 23
346.5
 33
0
 14
382.5
 24
320.5
 34
0
 50
90
100
AcDbRotatedDimension
  0
DIMENSION
  5
214
100
AcDbEntity
  8
Dimensions
  6
ByLayer
 62
  256
370
   -1
100
AcDbDimension
  2
*D25
 10
-30
 20
15
 30
0
 11
-34.68749999999999
 21
225
 31
0
 70
   32
 71
    5
 72
    0
  3
Standard
 53
0
210
0
220
0
230
1
100
AcDbAlignedDimension
 13
0
 23
435
 33
0
 14
0
 24
15
 34
0
 50
90
100
AcDbRotatedDimension
  0
CIRCLE
  5
215
100
AcDbEntity
  8
0
  6
ByLayer
 62
  256
370
   -1
100
AcDbCircle
 10
98
 20
396
 40
1
  0
CIRCLE
  5
216
100
AcDbEntity
  8
0
  6
ByLayer
 62
  256
370
   -1
100
AcDbCircle
 10
352
 20
395
 40
1
  0
DIMENSION
  5
217
100
AcDbEntity
  8
Dimensions
  6
ByLayer
 62
  256
370
   -1
100
AcDbDimension
  2
*D26
 10
402.5
 20
410
 30
0
 11
377.25
 21
414.6875
 31
0
 70
   32
 71
    5
  3
Standard
 53
0
210
0
220
0
230
1
100
AcDbAlignedDimension
 13
352
 23
395
 33
0
 14
402.5
 24
395
 34
0
100
AcDbRotatedDimension
  0
DIMENSION
  5
218
100
AcDbEntity
  8
Dimensions
  6
ByLayer
 62
  256
370
   -1
100
AcDbDimension
  2
*D27
 10
152.0454545454
 20
413
 30
0
 11
140.4545454545
 21
417.6875
 31
0
 70
   32
 71
    5
 72
    0
  3
Standard
 53
0
210
0
220
0
230
1
100
AcDbAlignedDimension
 13
128.8636363636
 23
382.5
 33
0
 14
152.0454545454
 24
382.5
 34
0
100
AcDbRotatedDimension
  0
LINE
  5
219
100
AcDbEntity
  8
0
  6
ByLayer
 62
  256
370
   -1
100
AcDbLine
 10
15
 20
435
 11
435
 21
435
  0
LINE
  5
21A
100
AcDbEntity
  8
0
  6
ByLayer
 62
  256
370
   -1
100
AcDbLine
 10
15
 20
15
 11
435
 21
15
  0
LINE
  5
21B
100
AcDbEntity
  8
0
  6
ByLayer
 62
  256
370
   -1
100
AcDbLine
 10
15
 20
15
 11
0
 21
0
  0
LINE
  5
21C
100
AcDbEntity
  8
0
  6
ByLayer
 62
  256
370
   -1
100
AcDbLine
 10
15
 20
435
 11
0
 21
450
  0
LINE
  5
21D
100
AcDbEntity
  8
0
  6
ByLayer
 62
  256
370
   -1
100
AcDbLine
 10
435
 20
435
 11
450
 21
450
  0
LINE
  5
21E
100
AcDbEntity
  8
0
  6
ByLayer
 62
  256
370
   -1
100
AcDbLine
 10
435
 20
15
 11
450
 21
0
  0
ENDSEC
  0
SECTION
  2
OBJECTS
  0
DICTIONARY
  5
C
330
0
100
AcDbDictionary
281
    1
  3
ACAD_GROUP
350
D
  0
DICTIONARY
  5
D
330
C
100
AcDbDictionary
281
    1
  0
ENDSEC
  0
EOF
